<?xml version="1.0" encoding="utf-8" standalone="no"?>
<!DOCTYPE svg PUBLIC "-//W3C//DTD SVG 1.1//EN"
  "http://www.w3.org/Graphics/SVG/1.1/DTD/svg11.dtd">
<!-- Created with matplotlib (https://matplotlib.org/) -->
<svg height="720pt" version="1.1" viewBox="0 0 720 720" width="720pt" xmlns="http://www.w3.org/2000/svg" xmlns:xlink="http://www.w3.org/1999/xlink">
 <defs>
  <style type="text/css">
*{stroke-linecap:butt;stroke-linejoin:round;}
  </style>
 </defs>
 <g id="figure_1">
  <g id="patch_1">
   <path d="M 0 720 
L 720 720 
L 720 0 
L 0 0 
z
" style="fill:#ffffff;"/>
  </g>
  <g id="axes_1">
   <g id="patch_2">
    <path d="M 90 630 
L 648 630 
L 648 86.4 
L 90 86.4 
z
" style="fill:#ffffff;"/>
   </g>
   <g id="matplotlib.axis_1">
    <g id="xtick_1">
     <g id="line2d_1">
      <path clip-path="url(#pc8b45d2f72)" d="M 105.144373 630 
L 105.144373 86.4 
" style="fill:none;stroke:#cccccc;stroke-linecap:round;"/>
     </g>
     <g id="text_1">
      <!-- 200 -->
      <defs>
       <path d="M 50.34375 8.453125 
L 50.34375 0 
L 3.03125 0 
Q 2.9375 3.171875 4.046875 6.109375 
Q 5.859375 10.9375 9.828125 15.625 
Q 13.8125 20.3125 21.34375 26.46875 
Q 33.015625 36.03125 37.109375 41.625 
Q 41.21875 47.21875 41.21875 52.203125 
Q 41.21875 57.421875 37.46875 61 
Q 33.734375 64.59375 27.734375 64.59375 
Q 21.390625 64.59375 17.578125 60.78125 
Q 13.765625 56.984375 13.71875 50.25 
L 4.6875 51.171875 
Q 5.609375 61.28125 11.65625 66.578125 
Q 17.71875 71.875 27.9375 71.875 
Q 38.234375 71.875 44.234375 66.15625 
Q 50.25 60.453125 50.25 52 
Q 50.25 47.703125 48.484375 43.546875 
Q 46.734375 39.40625 42.65625 34.8125 
Q 38.578125 30.21875 29.109375 22.21875 
Q 21.1875 15.578125 18.9375 13.203125 
Q 16.703125 10.84375 15.234375 8.453125 
z
" id="ArialMT-50"/>
       <path d="M 4.15625 35.296875 
Q 4.15625 48 6.765625 55.734375 
Q 9.375 63.484375 14.515625 67.671875 
Q 19.671875 71.875 27.484375 71.875 
Q 33.25 71.875 37.59375 69.546875 
Q 41.9375 67.234375 44.765625 62.859375 
Q 47.609375 58.5 49.21875 52.21875 
Q 50.828125 45.953125 50.828125 35.296875 
Q 50.828125 22.703125 48.234375 14.96875 
Q 45.65625 7.234375 40.5 3 
Q 35.359375 -1.21875 27.484375 -1.21875 
Q 17.140625 -1.21875 11.234375 6.203125 
Q 4.15625 15.140625 4.15625 35.296875 
z
M 13.1875 35.296875 
Q 13.1875 17.671875 17.3125 11.828125 
Q 21.4375 6 27.484375 6 
Q 33.546875 6 37.671875 11.859375 
Q 41.796875 17.71875 41.796875 35.296875 
Q 41.796875 52.984375 37.671875 58.78125 
Q 33.546875 64.59375 27.390625 64.59375 
Q 21.34375 64.59375 17.71875 59.46875 
Q 13.1875 52.9375 13.1875 35.296875 
z
" id="ArialMT-48"/>
      </defs>
      <g style="fill:#262626;" transform="translate(95.968827 647.373594)scale(0.11 -0.11)">
       <use xlink:href="#ArialMT-50"/>
       <use x="55.615234" xlink:href="#ArialMT-48"/>
       <use x="111.230469" xlink:href="#ArialMT-48"/>
      </g>
     </g>
    </g>
    <g id="xtick_2">
     <g id="line2d_2">
      <path clip-path="url(#pc8b45d2f72)" d="M 183.789866 630 
L 183.789866 86.4 
" style="fill:none;stroke:#cccccc;stroke-linecap:round;"/>
     </g>
     <g id="text_2">
      <!-- 300 -->
      <defs>
       <path d="M 4.203125 18.890625 
L 12.984375 20.0625 
Q 14.5 12.59375 18.140625 9.296875 
Q 21.78125 6 27 6 
Q 33.203125 6 37.46875 10.296875 
Q 41.75 14.59375 41.75 20.953125 
Q 41.75 27 37.796875 30.921875 
Q 33.84375 34.859375 27.734375 34.859375 
Q 25.25 34.859375 21.53125 33.890625 
L 22.515625 41.609375 
Q 23.390625 41.5 23.921875 41.5 
Q 29.546875 41.5 34.03125 44.421875 
Q 38.53125 47.359375 38.53125 53.46875 
Q 38.53125 58.296875 35.25 61.46875 
Q 31.984375 64.65625 26.8125 64.65625 
Q 21.6875 64.65625 18.265625 61.421875 
Q 14.84375 58.203125 13.875 51.765625 
L 5.078125 53.328125 
Q 6.6875 62.15625 12.390625 67.015625 
Q 18.109375 71.875 26.609375 71.875 
Q 32.46875 71.875 37.390625 69.359375 
Q 42.328125 66.84375 44.9375 62.5 
Q 47.5625 58.15625 47.5625 53.265625 
Q 47.5625 48.640625 45.0625 44.828125 
Q 42.578125 41.015625 37.703125 38.765625 
Q 44.046875 37.3125 47.5625 32.6875 
Q 51.078125 28.078125 51.078125 21.140625 
Q 51.078125 11.765625 44.234375 5.25 
Q 37.40625 -1.265625 26.953125 -1.265625 
Q 17.53125 -1.265625 11.296875 4.34375 
Q 5.078125 9.96875 4.203125 18.890625 
z
" id="ArialMT-51"/>
      </defs>
      <g style="fill:#262626;" transform="translate(174.614319 647.373594)scale(0.11 -0.11)">
       <use xlink:href="#ArialMT-51"/>
       <use x="55.615234" xlink:href="#ArialMT-48"/>
       <use x="111.230469" xlink:href="#ArialMT-48"/>
      </g>
     </g>
    </g>
    <g id="xtick_3">
     <g id="line2d_3">
      <path clip-path="url(#pc8b45d2f72)" d="M 262.435358 630 
L 262.435358 86.4 
" style="fill:none;stroke:#cccccc;stroke-linecap:round;"/>
     </g>
     <g id="text_3">
      <!-- 400 -->
      <defs>
       <path d="M 32.328125 0 
L 32.328125 17.140625 
L 1.265625 17.140625 
L 1.265625 25.203125 
L 33.9375 71.578125 
L 41.109375 71.578125 
L 41.109375 25.203125 
L 50.78125 25.203125 
L 50.78125 17.140625 
L 41.109375 17.140625 
L 41.109375 0 
z
M 32.328125 25.203125 
L 32.328125 57.46875 
L 9.90625 25.203125 
z
" id="ArialMT-52"/>
      </defs>
      <g style="fill:#262626;" transform="translate(253.259811 647.373594)scale(0.11 -0.11)">
       <use xlink:href="#ArialMT-52"/>
       <use x="55.615234" xlink:href="#ArialMT-48"/>
       <use x="111.230469" xlink:href="#ArialMT-48"/>
      </g>
     </g>
    </g>
    <g id="xtick_4">
     <g id="line2d_4">
      <path clip-path="url(#pc8b45d2f72)" d="M 341.08085 630 
L 341.08085 86.4 
" style="fill:none;stroke:#cccccc;stroke-linecap:round;"/>
     </g>
     <g id="text_4">
      <!-- 500 -->
      <defs>
       <path d="M 4.15625 18.75 
L 13.375 19.53125 
Q 14.40625 12.796875 18.140625 9.390625 
Q 21.875 6 27.15625 6 
Q 33.5 6 37.890625 10.78125 
Q 42.28125 15.578125 42.28125 23.484375 
Q 42.28125 31 38.0625 35.34375 
Q 33.84375 39.703125 27 39.703125 
Q 22.75 39.703125 19.328125 37.765625 
Q 15.921875 35.84375 13.96875 32.765625 
L 5.71875 33.84375 
L 12.640625 70.609375 
L 48.25 70.609375 
L 48.25 62.203125 
L 19.671875 62.203125 
L 15.828125 42.96875 
Q 22.265625 47.46875 29.34375 47.46875 
Q 38.71875 47.46875 45.15625 40.96875 
Q 51.609375 34.46875 51.609375 24.265625 
Q 51.609375 14.546875 45.953125 7.46875 
Q 39.0625 -1.21875 27.15625 -1.21875 
Q 17.390625 -1.21875 11.203125 4.25 
Q 5.03125 9.71875 4.15625 18.75 
z
" id="ArialMT-53"/>
      </defs>
      <g style="fill:#262626;" transform="translate(331.905303 647.373594)scale(0.11 -0.11)">
       <use xlink:href="#ArialMT-53"/>
       <use x="55.615234" xlink:href="#ArialMT-48"/>
       <use x="111.230469" xlink:href="#ArialMT-48"/>
      </g>
     </g>
    </g>
    <g id="xtick_5">
     <g id="line2d_5">
      <path clip-path="url(#pc8b45d2f72)" d="M 419.726343 630 
L 419.726343 86.4 
" style="fill:none;stroke:#cccccc;stroke-linecap:round;"/>
     </g>
     <g id="text_5">
      <!-- 600 -->
      <defs>
       <path d="M 49.75 54.046875 
L 41.015625 53.375 
Q 39.84375 58.546875 37.703125 60.890625 
Q 34.125 64.65625 28.90625 64.65625 
Q 24.703125 64.65625 21.53125 62.3125 
Q 17.390625 59.28125 14.984375 53.46875 
Q 12.59375 47.65625 12.5 36.921875 
Q 15.671875 41.75 20.265625 44.09375 
Q 24.859375 46.4375 29.890625 46.4375 
Q 38.671875 46.4375 44.84375 39.96875 
Q 51.03125 33.5 51.03125 23.25 
Q 51.03125 16.5 48.125 10.71875 
Q 45.21875 4.9375 40.140625 1.859375 
Q 35.0625 -1.21875 28.609375 -1.21875 
Q 17.625 -1.21875 10.6875 6.859375 
Q 3.765625 14.9375 3.765625 33.5 
Q 3.765625 54.25 11.421875 63.671875 
Q 18.109375 71.875 29.4375 71.875 
Q 37.890625 71.875 43.28125 67.140625 
Q 48.6875 62.40625 49.75 54.046875 
z
M 13.875 23.1875 
Q 13.875 18.65625 15.796875 14.5 
Q 17.71875 10.359375 21.1875 8.171875 
Q 24.65625 6 28.46875 6 
Q 34.03125 6 38.03125 10.484375 
Q 42.046875 14.984375 42.046875 22.703125 
Q 42.046875 30.125 38.078125 34.390625 
Q 34.125 38.671875 28.125 38.671875 
Q 22.171875 38.671875 18.015625 34.390625 
Q 13.875 30.125 13.875 23.1875 
z
" id="ArialMT-54"/>
      </defs>
      <g style="fill:#262626;" transform="translate(410.550796 647.373594)scale(0.11 -0.11)">
       <use xlink:href="#ArialMT-54"/>
       <use x="55.615234" xlink:href="#ArialMT-48"/>
       <use x="111.230469" xlink:href="#ArialMT-48"/>
      </g>
     </g>
    </g>
    <g id="xtick_6">
     <g id="line2d_6">
      <path clip-path="url(#pc8b45d2f72)" d="M 498.371835 630 
L 498.371835 86.4 
" style="fill:none;stroke:#cccccc;stroke-linecap:round;"/>
     </g>
     <g id="text_6">
      <!-- 700 -->
      <defs>
       <path d="M 4.734375 62.203125 
L 4.734375 70.65625 
L 51.078125 70.65625 
L 51.078125 63.8125 
Q 44.234375 56.546875 37.515625 44.484375 
Q 30.8125 32.421875 27.15625 19.671875 
Q 24.515625 10.6875 23.78125 0 
L 14.75 0 
Q 14.890625 8.453125 18.0625 20.40625 
Q 21.234375 32.375 27.171875 43.484375 
Q 33.109375 54.59375 39.796875 62.203125 
z
" id="ArialMT-55"/>
      </defs>
      <g style="fill:#262626;" transform="translate(489.196288 647.373594)scale(0.11 -0.11)">
       <use xlink:href="#ArialMT-55"/>
       <use x="55.615234" xlink:href="#ArialMT-48"/>
       <use x="111.230469" xlink:href="#ArialMT-48"/>
      </g>
     </g>
    </g>
    <g id="xtick_7">
     <g id="line2d_7">
      <path clip-path="url(#pc8b45d2f72)" d="M 577.017327 630 
L 577.017327 86.4 
" style="fill:none;stroke:#cccccc;stroke-linecap:round;"/>
     </g>
     <g id="text_7">
      <!-- 800 -->
      <defs>
       <path d="M 17.671875 38.8125 
Q 12.203125 40.828125 9.5625 44.53125 
Q 6.9375 48.25 6.9375 53.421875 
Q 6.9375 61.234375 12.546875 66.546875 
Q 18.171875 71.875 27.484375 71.875 
Q 36.859375 71.875 42.578125 66.421875 
Q 48.296875 60.984375 48.296875 53.171875 
Q 48.296875 48.1875 45.671875 44.5 
Q 43.0625 40.828125 37.75 38.8125 
Q 44.34375 36.671875 47.78125 31.875 
Q 51.21875 27.09375 51.21875 20.453125 
Q 51.21875 11.28125 44.71875 5.03125 
Q 38.234375 -1.21875 27.640625 -1.21875 
Q 17.046875 -1.21875 10.546875 5.046875 
Q 4.046875 11.328125 4.046875 20.703125 
Q 4.046875 27.6875 7.59375 32.390625 
Q 11.140625 37.109375 17.671875 38.8125 
z
M 15.921875 53.71875 
Q 15.921875 48.640625 19.1875 45.40625 
Q 22.46875 42.1875 27.6875 42.1875 
Q 32.765625 42.1875 36.015625 45.375 
Q 39.265625 48.578125 39.265625 53.21875 
Q 39.265625 58.0625 35.90625 61.359375 
Q 32.5625 64.65625 27.59375 64.65625 
Q 22.5625 64.65625 19.234375 61.421875 
Q 15.921875 58.203125 15.921875 53.71875 
z
M 13.09375 20.65625 
Q 13.09375 16.890625 14.875 13.375 
Q 16.65625 9.859375 20.171875 7.921875 
Q 23.6875 6 27.734375 6 
Q 34.03125 6 38.125 10.046875 
Q 42.234375 14.109375 42.234375 20.359375 
Q 42.234375 26.703125 38.015625 30.859375 
Q 33.796875 35.015625 27.4375 35.015625 
Q 21.234375 35.015625 17.15625 30.90625 
Q 13.09375 26.8125 13.09375 20.65625 
z
" id="ArialMT-56"/>
      </defs>
      <g style="fill:#262626;" transform="translate(567.84178 647.373594)scale(0.11 -0.11)">
       <use xlink:href="#ArialMT-56"/>
       <use x="55.615234" xlink:href="#ArialMT-48"/>
       <use x="111.230469" xlink:href="#ArialMT-48"/>
      </g>
     </g>
    </g>
    <g id="text_8">
     <!-- Library Size -->
     <defs>
      <path d="M 7.328125 0 
L 7.328125 71.578125 
L 16.796875 71.578125 
L 16.796875 8.453125 
L 52.046875 8.453125 
L 52.046875 0 
z
" id="ArialMT-76"/>
      <path d="M 6.640625 61.46875 
L 6.640625 71.578125 
L 15.4375 71.578125 
L 15.4375 61.46875 
z
M 6.640625 0 
L 6.640625 51.859375 
L 15.4375 51.859375 
L 15.4375 0 
z
" id="ArialMT-105"/>
      <path d="M 14.703125 0 
L 6.546875 0 
L 6.546875 71.578125 
L 15.328125 71.578125 
L 15.328125 46.046875 
Q 20.90625 53.03125 29.546875 53.03125 
Q 34.328125 53.03125 38.59375 51.09375 
Q 42.875 49.171875 45.625 45.671875 
Q 48.390625 42.1875 49.953125 37.25 
Q 51.515625 32.328125 51.515625 26.703125 
Q 51.515625 13.375 44.921875 6.09375 
Q 38.328125 -1.171875 29.109375 -1.171875 
Q 19.921875 -1.171875 14.703125 6.5 
z
M 14.59375 26.3125 
Q 14.59375 17 17.140625 12.84375 
Q 21.296875 6.0625 28.375 6.0625 
Q 34.125 6.0625 38.328125 11.0625 
Q 42.53125 16.0625 42.53125 25.984375 
Q 42.53125 36.140625 38.5 40.96875 
Q 34.46875 45.796875 28.765625 45.796875 
Q 23 45.796875 18.796875 40.796875 
Q 14.59375 35.796875 14.59375 26.3125 
z
" id="ArialMT-98"/>
      <path d="M 6.5 0 
L 6.5 51.859375 
L 14.40625 51.859375 
L 14.40625 44 
Q 17.4375 49.515625 20 51.265625 
Q 22.5625 53.03125 25.640625 53.03125 
Q 30.078125 53.03125 34.671875 50.203125 
L 31.640625 42.046875 
Q 28.421875 43.953125 25.203125 43.953125 
Q 22.3125 43.953125 20.015625 42.21875 
Q 17.71875 40.484375 16.75 37.40625 
Q 15.28125 32.71875 15.28125 27.15625 
L 15.28125 0 
z
" id="ArialMT-114"/>
      <path d="M 40.4375 6.390625 
Q 35.546875 2.25 31.03125 0.53125 
Q 26.515625 -1.171875 21.34375 -1.171875 
Q 12.796875 -1.171875 8.203125 3 
Q 3.609375 7.171875 3.609375 13.671875 
Q 3.609375 17.484375 5.34375 20.625 
Q 7.078125 23.78125 9.890625 25.6875 
Q 12.703125 27.59375 16.21875 28.5625 
Q 18.796875 29.25 24.03125 29.890625 
Q 34.671875 31.15625 39.703125 32.90625 
Q 39.75 34.71875 39.75 35.203125 
Q 39.75 40.578125 37.25 42.78125 
Q 33.890625 45.75 27.25 45.75 
Q 21.046875 45.75 18.09375 43.578125 
Q 15.140625 41.40625 13.71875 35.890625 
L 5.125 37.0625 
Q 6.296875 42.578125 8.984375 45.96875 
Q 11.671875 49.359375 16.75 51.1875 
Q 21.828125 53.03125 28.515625 53.03125 
Q 35.15625 53.03125 39.296875 51.46875 
Q 43.453125 49.90625 45.40625 47.53125 
Q 47.359375 45.171875 48.140625 41.546875 
Q 48.578125 39.3125 48.578125 33.453125 
L 48.578125 21.734375 
Q 48.578125 9.46875 49.140625 6.21875 
Q 49.703125 2.984375 51.375 0 
L 42.1875 0 
Q 40.828125 2.734375 40.4375 6.390625 
z
M 39.703125 26.03125 
Q 34.90625 24.078125 25.34375 22.703125 
Q 19.921875 21.921875 17.671875 20.9375 
Q 15.4375 19.96875 14.203125 18.09375 
Q 12.984375 16.21875 12.984375 13.921875 
Q 12.984375 10.40625 15.640625 8.0625 
Q 18.3125 5.71875 23.4375 5.71875 
Q 28.515625 5.71875 32.46875 7.9375 
Q 36.421875 10.15625 38.28125 14.015625 
Q 39.703125 17 39.703125 22.796875 
z
" id="ArialMT-97"/>
      <path d="M 6.203125 -19.96875 
L 5.21875 -11.71875 
Q 8.109375 -12.5 10.25 -12.5 
Q 13.1875 -12.5 14.9375 -11.515625 
Q 16.703125 -10.546875 17.828125 -8.796875 
Q 18.65625 -7.46875 20.515625 -2.25 
Q 20.75 -1.515625 21.296875 -0.09375 
L 1.609375 51.859375 
L 11.078125 51.859375 
L 21.875 21.828125 
Q 23.96875 16.109375 25.640625 9.8125 
Q 27.15625 15.875 29.25 21.625 
L 40.328125 51.859375 
L 49.125 51.859375 
L 29.390625 -0.875 
Q 26.21875 -9.421875 24.46875 -12.640625 
Q 22.125 -17 19.09375 -19.015625 
Q 16.0625 -21.046875 11.859375 -21.046875 
Q 9.328125 -21.046875 6.203125 -19.96875 
z
" id="ArialMT-121"/>
      <path id="ArialMT-32"/>
      <path d="M 4.5 23 
L 13.421875 23.78125 
Q 14.0625 18.40625 16.375 14.96875 
Q 18.703125 11.53125 23.578125 9.40625 
Q 28.46875 7.28125 34.578125 7.28125 
Q 39.984375 7.28125 44.140625 8.890625 
Q 48.296875 10.5 50.3125 13.296875 
Q 52.34375 16.109375 52.34375 19.4375 
Q 52.34375 22.796875 50.390625 25.3125 
Q 48.4375 27.828125 43.953125 29.546875 
Q 41.0625 30.671875 31.203125 33.03125 
Q 21.34375 35.40625 17.390625 37.5 
Q 12.25 40.1875 9.734375 44.15625 
Q 7.234375 48.140625 7.234375 53.078125 
Q 7.234375 58.5 10.296875 63.203125 
Q 13.375 67.921875 19.28125 70.359375 
Q 25.203125 72.796875 32.421875 72.796875 
Q 40.375 72.796875 46.453125 70.234375 
Q 52.546875 67.671875 55.8125 62.6875 
Q 59.078125 57.71875 59.328125 51.421875 
L 50.25 50.734375 
Q 49.515625 57.515625 45.28125 60.984375 
Q 41.0625 64.453125 32.8125 64.453125 
Q 24.21875 64.453125 20.28125 61.296875 
Q 16.359375 58.15625 16.359375 53.71875 
Q 16.359375 49.859375 19.140625 47.359375 
Q 21.875 44.875 33.421875 42.265625 
Q 44.96875 39.65625 49.265625 37.703125 
Q 55.515625 34.8125 58.484375 30.390625 
Q 61.46875 25.984375 61.46875 20.21875 
Q 61.46875 14.5 58.203125 9.4375 
Q 54.9375 4.390625 48.796875 1.578125 
Q 42.671875 -1.21875 35.015625 -1.21875 
Q 25.296875 -1.21875 18.71875 1.609375 
Q 12.15625 4.4375 8.421875 10.125 
Q 4.6875 15.828125 4.5 23 
z
" id="ArialMT-83"/>
      <path d="M 1.953125 0 
L 1.953125 7.125 
L 34.96875 45.015625 
Q 29.34375 44.734375 25.046875 44.734375 
L 3.90625 44.734375 
L 3.90625 51.859375 
L 46.296875 51.859375 
L 46.296875 46.046875 
L 18.21875 13.140625 
L 12.796875 7.125 
Q 18.703125 7.5625 23.875 7.5625 
L 47.859375 7.5625 
L 47.859375 0 
z
" id="ArialMT-122"/>
      <path d="M 42.09375 16.703125 
L 51.171875 15.578125 
Q 49.03125 7.625 43.21875 3.21875 
Q 37.40625 -1.171875 28.375 -1.171875 
Q 17 -1.171875 10.328125 5.828125 
Q 3.65625 12.84375 3.65625 25.484375 
Q 3.65625 38.578125 10.390625 45.796875 
Q 17.140625 53.03125 27.875 53.03125 
Q 38.28125 53.03125 44.875 45.953125 
Q 51.46875 38.875 51.46875 26.03125 
Q 51.46875 25.25 51.421875 23.6875 
L 12.75 23.6875 
Q 13.234375 15.140625 17.578125 10.59375 
Q 21.921875 6.0625 28.421875 6.0625 
Q 33.25 6.0625 36.671875 8.59375 
Q 40.09375 11.140625 42.09375 16.703125 
z
M 13.234375 30.90625 
L 42.1875 30.90625 
Q 41.609375 37.453125 38.875 40.71875 
Q 34.671875 45.796875 27.984375 45.796875 
Q 21.921875 45.796875 17.796875 41.75 
Q 13.671875 37.703125 13.234375 30.90625 
z
" id="ArialMT-101"/>
     </defs>
     <g style="fill:#262626;" transform="translate(337.322812 662.295469)scale(0.12 -0.12)">
      <use xlink:href="#ArialMT-76"/>
      <use x="55.615234" xlink:href="#ArialMT-105"/>
      <use x="77.832031" xlink:href="#ArialMT-98"/>
      <use x="133.447266" xlink:href="#ArialMT-114"/>
      <use x="166.748047" xlink:href="#ArialMT-97"/>
      <use x="222.363281" xlink:href="#ArialMT-114"/>
      <use x="255.664062" xlink:href="#ArialMT-121"/>
      <use x="305.664062" xlink:href="#ArialMT-32"/>
      <use x="333.447266" xlink:href="#ArialMT-83"/>
      <use x="400.146484" xlink:href="#ArialMT-105"/>
      <use x="422.363281" xlink:href="#ArialMT-122"/>
      <use x="472.363281" xlink:href="#ArialMT-101"/>
     </g>
    </g>
   </g>
   <g id="matplotlib.axis_2">
    <g id="ytick_1">
     <g id="line2d_8">
      <path clip-path="url(#pc8b45d2f72)" d="M 90 606.496017 
L 648 606.496017 
" style="fill:none;stroke:#cccccc;stroke-linecap:round;"/>
     </g>
     <g id="text_9">
      <!-- 0.3 -->
      <defs>
       <path d="M 9.078125 0 
L 9.078125 10.015625 
L 19.09375 10.015625 
L 19.09375 0 
z
" id="ArialMT-46"/>
      </defs>
      <g style="fill:#262626;" transform="translate(65.21 610.432814)scale(0.11 -0.11)">
       <use xlink:href="#ArialMT-48"/>
       <use x="55.615234" xlink:href="#ArialMT-46"/>
       <use x="83.398438" xlink:href="#ArialMT-51"/>
      </g>
     </g>
    </g>
    <g id="ytick_2">
     <g id="line2d_9">
      <path clip-path="url(#pc8b45d2f72)" d="M 90 534.823252 
L 648 534.823252 
" style="fill:none;stroke:#cccccc;stroke-linecap:round;"/>
     </g>
     <g id="text_10">
      <!-- 0.4 -->
      <g style="fill:#262626;" transform="translate(65.21 538.760049)scale(0.11 -0.11)">
       <use xlink:href="#ArialMT-48"/>
       <use x="55.615234" xlink:href="#ArialMT-46"/>
       <use x="83.398438" xlink:href="#ArialMT-52"/>
      </g>
     </g>
    </g>
    <g id="ytick_3">
     <g id="line2d_10">
      <path clip-path="url(#pc8b45d2f72)" d="M 90 463.150488 
L 648 463.150488 
" style="fill:none;stroke:#cccccc;stroke-linecap:round;"/>
     </g>
     <g id="text_11">
      <!-- 0.5 -->
      <g style="fill:#262626;" transform="translate(65.21 467.087285)scale(0.11 -0.11)">
       <use xlink:href="#ArialMT-48"/>
       <use x="55.615234" xlink:href="#ArialMT-46"/>
       <use x="83.398438" xlink:href="#ArialMT-53"/>
      </g>
     </g>
    </g>
    <g id="ytick_4">
     <g id="line2d_11">
      <path clip-path="url(#pc8b45d2f72)" d="M 90 391.477724 
L 648 391.477724 
" style="fill:none;stroke:#cccccc;stroke-linecap:round;"/>
     </g>
     <g id="text_12">
      <!-- 0.6 -->
      <g style="fill:#262626;" transform="translate(65.21 395.414521)scale(0.11 -0.11)">
       <use xlink:href="#ArialMT-48"/>
       <use x="55.615234" xlink:href="#ArialMT-46"/>
       <use x="83.398438" xlink:href="#ArialMT-54"/>
      </g>
     </g>
    </g>
    <g id="ytick_5">
     <g id="line2d_12">
      <path clip-path="url(#pc8b45d2f72)" d="M 90 319.80496 
L 648 319.80496 
" style="fill:none;stroke:#cccccc;stroke-linecap:round;"/>
     </g>
     <g id="text_13">
      <!-- 0.7 -->
      <g style="fill:#262626;" transform="translate(65.21 323.741756)scale(0.11 -0.11)">
       <use xlink:href="#ArialMT-48"/>
       <use x="55.615234" xlink:href="#ArialMT-46"/>
       <use x="83.398438" xlink:href="#ArialMT-55"/>
      </g>
     </g>
    </g>
    <g id="ytick_6">
     <g id="line2d_13">
      <path clip-path="url(#pc8b45d2f72)" d="M 90 248.132195 
L 648 248.132195 
" style="fill:none;stroke:#cccccc;stroke-linecap:round;"/>
     </g>
     <g id="text_14">
      <!-- 0.8 -->
      <g style="fill:#262626;" transform="translate(65.21 252.068992)scale(0.11 -0.11)">
       <use xlink:href="#ArialMT-48"/>
       <use x="55.615234" xlink:href="#ArialMT-46"/>
       <use x="83.398438" xlink:href="#ArialMT-56"/>
      </g>
     </g>
    </g>
    <g id="ytick_7">
     <g id="line2d_14">
      <path clip-path="url(#pc8b45d2f72)" d="M 90 176.459431 
L 648 176.459431 
" style="fill:none;stroke:#cccccc;stroke-linecap:round;"/>
     </g>
     <g id="text_15">
      <!-- 0.9 -->
      <defs>
       <path d="M 5.46875 16.546875 
L 13.921875 17.328125 
Q 14.984375 11.375 18.015625 8.6875 
Q 21.046875 6 25.78125 6 
Q 29.828125 6 32.875 7.859375 
Q 35.9375 9.71875 37.890625 12.8125 
Q 39.84375 15.921875 41.15625 21.1875 
Q 42.484375 26.46875 42.484375 31.9375 
Q 42.484375 32.515625 42.4375 33.6875 
Q 39.796875 29.5 35.234375 26.875 
Q 30.671875 24.265625 25.34375 24.265625 
Q 16.453125 24.265625 10.296875 30.703125 
Q 4.15625 37.15625 4.15625 47.703125 
Q 4.15625 58.59375 10.578125 65.234375 
Q 17 71.875 26.65625 71.875 
Q 33.640625 71.875 39.421875 68.109375 
Q 45.21875 64.359375 48.21875 57.390625 
Q 51.21875 50.4375 51.21875 37.25 
Q 51.21875 23.53125 48.234375 15.40625 
Q 45.265625 7.28125 39.375 3.03125 
Q 33.5 -1.21875 25.59375 -1.21875 
Q 17.1875 -1.21875 11.859375 3.4375 
Q 6.546875 8.109375 5.46875 16.546875 
z
M 41.453125 48.140625 
Q 41.453125 55.71875 37.421875 60.15625 
Q 33.40625 64.59375 27.734375 64.59375 
Q 21.875 64.59375 17.53125 59.8125 
Q 13.1875 55.03125 13.1875 47.40625 
Q 13.1875 40.578125 17.3125 36.296875 
Q 21.4375 32.03125 27.484375 32.03125 
Q 33.59375 32.03125 37.515625 36.296875 
Q 41.453125 40.578125 41.453125 48.140625 
z
" id="ArialMT-57"/>
      </defs>
      <g style="fill:#262626;" transform="translate(65.21 180.396228)scale(0.11 -0.11)">
       <use xlink:href="#ArialMT-48"/>
       <use x="55.615234" xlink:href="#ArialMT-46"/>
       <use x="83.398438" xlink:href="#ArialMT-57"/>
      </g>
     </g>
    </g>
    <g id="ytick_8">
     <g id="line2d_15">
      <path clip-path="url(#pc8b45d2f72)" d="M 90 104.786667 
L 648 104.786667 
" style="fill:none;stroke:#cccccc;stroke-linecap:round;"/>
     </g>
     <g id="text_16">
      <!-- 1.0 -->
      <defs>
       <path d="M 37.25 0 
L 28.46875 0 
L 28.46875 56 
Q 25.296875 52.984375 20.140625 49.953125 
Q 14.984375 46.921875 10.890625 45.40625 
L 10.890625 53.90625 
Q 18.265625 57.375 23.78125 62.296875 
Q 29.296875 67.234375 31.59375 71.875 
L 37.25 71.875 
z
" id="ArialMT-49"/>
      </defs>
      <g style="fill:#262626;" transform="translate(65.21 108.723464)scale(0.11 -0.11)">
       <use xlink:href="#ArialMT-49"/>
       <use x="55.615234" xlink:href="#ArialMT-46"/>
       <use x="83.398438" xlink:href="#ArialMT-48"/>
      </g>
     </g>
    </g>
    <g id="text_17">
     <!-- R-squared -->
     <defs>
      <path d="M 7.859375 0 
L 7.859375 71.578125 
L 39.59375 71.578125 
Q 49.171875 71.578125 54.140625 69.640625 
Q 59.125 67.71875 62.109375 62.828125 
Q 65.09375 57.953125 65.09375 52.046875 
Q 65.09375 44.4375 60.15625 39.203125 
Q 55.21875 33.984375 44.921875 32.5625 
Q 48.6875 30.765625 50.640625 29 
Q 54.78125 25.203125 58.5 19.484375 
L 70.953125 0 
L 59.03125 0 
L 49.5625 14.890625 
Q 45.40625 21.34375 42.71875 24.75 
Q 40.046875 28.171875 37.921875 29.53125 
Q 35.796875 30.90625 33.59375 31.453125 
Q 31.984375 31.78125 28.328125 31.78125 
L 17.328125 31.78125 
L 17.328125 0 
z
M 17.328125 39.984375 
L 37.703125 39.984375 
Q 44.1875 39.984375 47.84375 41.328125 
Q 51.515625 42.671875 53.421875 45.625 
Q 55.328125 48.578125 55.328125 52.046875 
Q 55.328125 57.125 51.640625 60.390625 
Q 47.953125 63.671875 39.984375 63.671875 
L 17.328125 63.671875 
z
" id="ArialMT-82"/>
      <path d="M 3.171875 21.484375 
L 3.171875 30.328125 
L 30.171875 30.328125 
L 30.171875 21.484375 
z
" id="ArialMT-45"/>
      <path d="M 3.078125 15.484375 
L 11.765625 16.84375 
Q 12.5 11.625 15.84375 8.84375 
Q 19.1875 6.0625 25.203125 6.0625 
Q 31.25 6.0625 34.171875 8.515625 
Q 37.109375 10.984375 37.109375 14.3125 
Q 37.109375 17.28125 34.515625 19 
Q 32.71875 20.171875 25.53125 21.96875 
Q 15.875 24.421875 12.140625 26.203125 
Q 8.40625 27.984375 6.46875 31.125 
Q 4.546875 34.28125 4.546875 38.09375 
Q 4.546875 41.546875 6.125 44.5 
Q 7.71875 47.46875 10.453125 49.421875 
Q 12.5 50.921875 16.03125 51.96875 
Q 19.578125 53.03125 23.640625 53.03125 
Q 29.734375 53.03125 34.34375 51.265625 
Q 38.96875 49.515625 41.15625 46.5 
Q 43.359375 43.5 44.1875 38.484375 
L 35.59375 37.3125 
Q 35.015625 41.3125 32.203125 43.546875 
Q 29.390625 45.796875 24.265625 45.796875 
Q 18.21875 45.796875 15.625 43.796875 
Q 13.03125 41.796875 13.03125 39.109375 
Q 13.03125 37.40625 14.109375 36.03125 
Q 15.1875 34.625 17.484375 33.6875 
Q 18.796875 33.203125 25.25 31.453125 
Q 34.578125 28.953125 38.25 27.359375 
Q 41.9375 25.78125 44.03125 22.75 
Q 46.140625 19.734375 46.140625 15.234375 
Q 46.140625 10.84375 43.578125 6.953125 
Q 41.015625 3.078125 36.171875 0.953125 
Q 31.34375 -1.171875 25.25 -1.171875 
Q 15.140625 -1.171875 9.84375 3.03125 
Q 4.546875 7.234375 3.078125 15.484375 
z
" id="ArialMT-115"/>
      <path d="M 39.65625 -19.875 
L 39.65625 5.515625 
Q 37.59375 2.640625 33.90625 0.734375 
Q 30.21875 -1.171875 26.078125 -1.171875 
Q 16.84375 -1.171875 10.171875 6.203125 
Q 3.515625 13.578125 3.515625 26.421875 
Q 3.515625 34.234375 6.21875 40.421875 
Q 8.9375 46.625 14.078125 49.828125 
Q 19.234375 53.03125 25.390625 53.03125 
Q 35.015625 53.03125 40.53125 44.921875 
L 40.53125 51.859375 
L 48.4375 51.859375 
L 48.4375 -19.875 
z
M 12.546875 26.078125 
Q 12.546875 16.0625 16.75 11.0625 
Q 20.953125 6.0625 26.8125 6.0625 
Q 32.421875 6.0625 36.46875 10.8125 
Q 40.53125 15.578125 40.53125 25.296875 
Q 40.53125 35.640625 36.25 40.859375 
Q 31.984375 46.09375 26.21875 46.09375 
Q 20.515625 46.09375 16.53125 41.234375 
Q 12.546875 36.375 12.546875 26.078125 
z
" id="ArialMT-113"/>
      <path d="M 40.578125 0 
L 40.578125 7.625 
Q 34.515625 -1.171875 24.125 -1.171875 
Q 19.53125 -1.171875 15.546875 0.578125 
Q 11.578125 2.34375 9.640625 5 
Q 7.71875 7.671875 6.9375 11.53125 
Q 6.390625 14.109375 6.390625 19.734375 
L 6.390625 51.859375 
L 15.1875 51.859375 
L 15.1875 23.09375 
Q 15.1875 16.21875 15.71875 13.8125 
Q 16.546875 10.359375 19.234375 8.375 
Q 21.921875 6.390625 25.875 6.390625 
Q 29.828125 6.390625 33.296875 8.421875 
Q 36.765625 10.453125 38.203125 13.9375 
Q 39.65625 17.4375 39.65625 24.078125 
L 39.65625 51.859375 
L 48.4375 51.859375 
L 48.4375 0 
z
" id="ArialMT-117"/>
      <path d="M 40.234375 0 
L 40.234375 6.546875 
Q 35.296875 -1.171875 25.734375 -1.171875 
Q 19.53125 -1.171875 14.328125 2.25 
Q 9.125 5.671875 6.265625 11.796875 
Q 3.421875 17.921875 3.421875 25.875 
Q 3.421875 33.640625 6 39.96875 
Q 8.59375 46.296875 13.765625 49.65625 
Q 18.953125 53.03125 25.34375 53.03125 
Q 30.03125 53.03125 33.6875 51.046875 
Q 37.359375 49.078125 39.65625 45.90625 
L 39.65625 71.578125 
L 48.390625 71.578125 
L 48.390625 0 
z
M 12.453125 25.875 
Q 12.453125 15.921875 16.640625 10.984375 
Q 20.84375 6.0625 26.5625 6.0625 
Q 32.328125 6.0625 36.34375 10.765625 
Q 40.375 15.484375 40.375 25.140625 
Q 40.375 35.796875 36.265625 40.765625 
Q 32.171875 45.75 26.171875 45.75 
Q 20.3125 45.75 16.375 40.96875 
Q 12.453125 36.1875 12.453125 25.875 
z
" id="ArialMT-100"/>
     </defs>
     <g style="fill:#262626;" transform="translate(58.825 386.211563)rotate(-90)scale(0.12 -0.12)">
      <use xlink:href="#ArialMT-82"/>
      <use x="72.216797" xlink:href="#ArialMT-45"/>
      <use x="105.517578" xlink:href="#ArialMT-115"/>
      <use x="155.517578" xlink:href="#ArialMT-113"/>
      <use x="211.132812" xlink:href="#ArialMT-117"/>
      <use x="266.748047" xlink:href="#ArialMT-97"/>
      <use x="322.363281" xlink:href="#ArialMT-114"/>
      <use x="355.664062" xlink:href="#ArialMT-101"/>
      <use x="411.279297" xlink:href="#ArialMT-100"/>
     </g>
    </g>
   </g>
   <g id="PathCollection_1">
    <defs>
     <path d="M 0 3 
C 0.795609 3 1.55874 2.683901 2.12132 2.12132 
C 2.683901 1.55874 3 0.795609 3 0 
C 3 -0.795609 2.683901 -1.55874 2.12132 -2.12132 
C 1.55874 -2.683901 0.795609 -3 0 -3 
C -0.795609 -3 -1.55874 -2.683901 -2.12132 -2.12132 
C -2.683901 -1.55874 -3 -0.795609 -3 0 
C -3 0.795609 -2.683901 1.55874 -2.12132 2.12132 
C -1.55874 2.683901 -0.795609 3 0 3 
z
" id="C0_0_204a9bdb2c"/>
    </defs>
    <g clip-path="url(#pc8b45d2f72)">
     <use style="fill:#4c72b0;stroke:#ffffff;stroke-width:0.75;" x="115.368287" xlink:href="#C0_0_204a9bdb2c" y="115.460087"/>
    </g>
    <g clip-path="url(#pc8b45d2f72)">
     <use style="fill:#4c72b0;stroke:#ffffff;stroke-width:0.75;" x="115.368287" xlink:href="#C0_0_204a9bdb2c" y="219.234199"/>
    </g>
    <g clip-path="url(#pc8b45d2f72)">
     <use style="fill:#4c72b0;stroke:#ffffff;stroke-width:0.75;" x="115.368287" xlink:href="#C0_0_204a9bdb2c" y="237.653148"/>
    </g>
    <g clip-path="url(#pc8b45d2f72)">
     <use style="fill:#4c72b0;stroke:#ffffff;stroke-width:0.75;" x="115.368287" xlink:href="#C0_0_204a9bdb2c" y="358.425892"/>
    </g>
    <g clip-path="url(#pc8b45d2f72)">
     <use style="fill:#4c72b0;stroke:#ffffff;stroke-width:0.75;" x="115.368287" xlink:href="#C0_0_204a9bdb2c" y="170.83321"/>
    </g>
    <g clip-path="url(#pc8b45d2f72)">
     <use style="fill:#4c72b0;stroke:#ffffff;stroke-width:0.75;" x="115.368287" xlink:href="#C0_0_204a9bdb2c" y="136.528461"/>
    </g>
    <g clip-path="url(#pc8b45d2f72)">
     <use style="fill:#4c72b0;stroke:#ffffff;stroke-width:0.75;" x="285.242551" xlink:href="#C0_0_204a9bdb2c" y="242.011952"/>
    </g>
    <g clip-path="url(#pc8b45d2f72)">
     <use style="fill:#4c72b0;stroke:#ffffff;stroke-width:0.75;" x="285.242551" xlink:href="#C0_0_204a9bdb2c" y="157.665453"/>
    </g>
    <g clip-path="url(#pc8b45d2f72)">
     <use style="fill:#4c72b0;stroke:#ffffff;stroke-width:0.75;" x="285.242551" xlink:href="#C0_0_204a9bdb2c" y="167.642548"/>
    </g>
    <g clip-path="url(#pc8b45d2f72)">
     <use style="fill:#4c72b0;stroke:#ffffff;stroke-width:0.75;" x="285.242551" xlink:href="#C0_0_204a9bdb2c" y="188.287066"/>
    </g>
    <g clip-path="url(#pc8b45d2f72)">
     <use style="fill:#4c72b0;stroke:#ffffff;stroke-width:0.75;" x="285.242551" xlink:href="#C0_0_204a9bdb2c" y="220.556594"/>
    </g>
    <g clip-path="url(#pc8b45d2f72)">
     <use style="fill:#4c72b0;stroke:#ffffff;stroke-width:0.75;" x="285.242551" xlink:href="#C0_0_204a9bdb2c" y="209.206046"/>
    </g>
    <g clip-path="url(#pc8b45d2f72)">
     <use style="fill:#4c72b0;stroke:#ffffff;stroke-width:0.75;" x="452.757449" xlink:href="#C0_0_204a9bdb2c" y="172.461571"/>
    </g>
    <g clip-path="url(#pc8b45d2f72)">
     <use style="fill:#4c72b0;stroke:#ffffff;stroke-width:0.75;" x="452.757449" xlink:href="#C0_0_204a9bdb2c" y="172.192797"/>
    </g>
    <g clip-path="url(#pc8b45d2f72)">
     <use style="fill:#4c72b0;stroke:#ffffff;stroke-width:0.75;" x="452.757449" xlink:href="#C0_0_204a9bdb2c" y="210.379612"/>
    </g>
    <g clip-path="url(#pc8b45d2f72)">
     <use style="fill:#4c72b0;stroke:#ffffff;stroke-width:0.75;" x="452.757449" xlink:href="#C0_0_204a9bdb2c" y="147.214454"/>
    </g>
    <g clip-path="url(#pc8b45d2f72)">
     <use style="fill:#4c72b0;stroke:#ffffff;stroke-width:0.75;" x="452.757449" xlink:href="#C0_0_204a9bdb2c" y="183.308826"/>
    </g>
    <g clip-path="url(#pc8b45d2f72)">
     <use style="fill:#4c72b0;stroke:#ffffff;stroke-width:0.75;" x="452.757449" xlink:href="#C0_0_204a9bdb2c" y="137.76436"/>
    </g>
    <g clip-path="url(#pc8b45d2f72)">
     <use style="fill:#4c72b0;stroke:#ffffff;stroke-width:0.75;" x="622.631713" xlink:href="#C0_0_204a9bdb2c" y="225.437218"/>
    </g>
    <g clip-path="url(#pc8b45d2f72)">
     <use style="fill:#4c72b0;stroke:#ffffff;stroke-width:0.75;" x="622.631713" xlink:href="#C0_0_204a9bdb2c" y="190.777685"/>
    </g>
    <g clip-path="url(#pc8b45d2f72)">
     <use style="fill:#4c72b0;stroke:#ffffff;stroke-width:0.75;" x="622.631713" xlink:href="#C0_0_204a9bdb2c" y="197.039376"/>
    </g>
    <g clip-path="url(#pc8b45d2f72)">
     <use style="fill:#4c72b0;stroke:#ffffff;stroke-width:0.75;" x="622.631713" xlink:href="#C0_0_204a9bdb2c" y="196.457105"/>
    </g>
    <g clip-path="url(#pc8b45d2f72)">
     <use style="fill:#4c72b0;stroke:#ffffff;stroke-width:0.75;" x="622.631713" xlink:href="#C0_0_204a9bdb2c" y="205.309243"/>
    </g>
    <g clip-path="url(#pc8b45d2f72)">
     <use style="fill:#4c72b0;stroke:#ffffff;stroke-width:0.75;" x="622.631713" xlink:href="#C0_0_204a9bdb2c" y="178.314805"/>
    </g>
    <g clip-path="url(#pc8b45d2f72)">
     <use style="fill:#dd8452;stroke:#ffffff;stroke-width:0.75;" x="115.368287" xlink:href="#C0_0_204a9bdb2c" y="600.939913"/>
    </g>
    <g clip-path="url(#pc8b45d2f72)">
     <use style="fill:#dd8452;stroke:#ffffff;stroke-width:0.75;" x="115.368287" xlink:href="#C0_0_204a9bdb2c" y="322.985099"/>
    </g>
    <g clip-path="url(#pc8b45d2f72)">
     <use style="fill:#dd8452;stroke:#ffffff;stroke-width:0.75;" x="115.368287" xlink:href="#C0_0_204a9bdb2c" y="370.936417"/>
    </g>
    <g clip-path="url(#pc8b45d2f72)">
     <use style="fill:#dd8452;stroke:#ffffff;stroke-width:0.75;" x="115.368287" xlink:href="#C0_0_204a9bdb2c" y="539.450982"/>
    </g>
    <g clip-path="url(#pc8b45d2f72)">
     <use style="fill:#dd8452;stroke:#ffffff;stroke-width:0.75;" x="115.368287" xlink:href="#C0_0_204a9bdb2c" y="372.826077"/>
    </g>
    <g clip-path="url(#pc8b45d2f72)">
     <use style="fill:#dd8452;stroke:#ffffff;stroke-width:0.75;" x="115.368287" xlink:href="#C0_0_204a9bdb2c" y="587.665013"/>
    </g>
    <g clip-path="url(#pc8b45d2f72)">
     <use style="fill:#dd8452;stroke:#ffffff;stroke-width:0.75;" x="285.242551" xlink:href="#C0_0_204a9bdb2c" y="276.83852"/>
    </g>
    <g clip-path="url(#pc8b45d2f72)">
     <use style="fill:#dd8452;stroke:#ffffff;stroke-width:0.75;" x="285.242551" xlink:href="#C0_0_204a9bdb2c" y="292.419263"/>
    </g>
    <g clip-path="url(#pc8b45d2f72)">
     <use style="fill:#dd8452;stroke:#ffffff;stroke-width:0.75;" x="285.242551" xlink:href="#C0_0_204a9bdb2c" y="293.986181"/>
    </g>
    <g clip-path="url(#pc8b45d2f72)">
     <use style="fill:#dd8452;stroke:#ffffff;stroke-width:0.75;" x="285.242551" xlink:href="#C0_0_204a9bdb2c" y="309.752933"/>
    </g>
    <g clip-path="url(#pc8b45d2f72)">
     <use style="fill:#dd8452;stroke:#ffffff;stroke-width:0.75;" x="285.242551" xlink:href="#C0_0_204a9bdb2c" y="290.574127"/>
    </g>
    <g clip-path="url(#pc8b45d2f72)">
     <use style="fill:#dd8452;stroke:#ffffff;stroke-width:0.75;" x="285.242551" xlink:href="#C0_0_204a9bdb2c" y="277.07811"/>
    </g>
    <g clip-path="url(#pc8b45d2f72)">
     <use style="fill:#dd8452;stroke:#ffffff;stroke-width:0.75;" x="452.757449" xlink:href="#C0_0_204a9bdb2c" y="292.172304"/>
    </g>
    <g clip-path="url(#pc8b45d2f72)">
     <use style="fill:#dd8452;stroke:#ffffff;stroke-width:0.75;" x="452.757449" xlink:href="#C0_0_204a9bdb2c" y="290.185798"/>
    </g>
    <g clip-path="url(#pc8b45d2f72)">
     <use style="fill:#dd8452;stroke:#ffffff;stroke-width:0.75;" x="452.757449" xlink:href="#C0_0_204a9bdb2c" y="257.015781"/>
    </g>
    <g clip-path="url(#pc8b45d2f72)">
     <use style="fill:#dd8452;stroke:#ffffff;stroke-width:0.75;" x="452.757449" xlink:href="#C0_0_204a9bdb2c" y="286.829892"/>
    </g>
    <g clip-path="url(#pc8b45d2f72)">
     <use style="fill:#dd8452;stroke:#ffffff;stroke-width:0.75;" x="452.757449" xlink:href="#C0_0_204a9bdb2c" y="231.04734"/>
    </g>
    <g clip-path="url(#pc8b45d2f72)">
     <use style="fill:#dd8452;stroke:#ffffff;stroke-width:0.75;" x="452.757449" xlink:href="#C0_0_204a9bdb2c" y="329.090773"/>
    </g>
    <g clip-path="url(#pc8b45d2f72)">
     <use style="fill:#dd8452;stroke:#ffffff;stroke-width:0.75;" x="622.631713" xlink:href="#C0_0_204a9bdb2c" y="220.564181"/>
    </g>
    <g clip-path="url(#pc8b45d2f72)">
     <use style="fill:#dd8452;stroke:#ffffff;stroke-width:0.75;" x="622.631713" xlink:href="#C0_0_204a9bdb2c" y="239.597384"/>
    </g>
    <g clip-path="url(#pc8b45d2f72)">
     <use style="fill:#dd8452;stroke:#ffffff;stroke-width:0.75;" x="622.631713" xlink:href="#C0_0_204a9bdb2c" y="239.16871"/>
    </g>
    <g clip-path="url(#pc8b45d2f72)">
     <use style="fill:#dd8452;stroke:#ffffff;stroke-width:0.75;" x="622.631713" xlink:href="#C0_0_204a9bdb2c" y="220.422363"/>
    </g>
    <g clip-path="url(#pc8b45d2f72)">
     <use style="fill:#dd8452;stroke:#ffffff;stroke-width:0.75;" x="622.631713" xlink:href="#C0_0_204a9bdb2c" y="234.58207"/>
    </g>
    <g clip-path="url(#pc8b45d2f72)">
     <use style="fill:#dd8452;stroke:#ffffff;stroke-width:0.75;" x="622.631713" xlink:href="#C0_0_204a9bdb2c" y="231.875682"/>
    </g>
   </g>
   <g id="PolyCollection_1">
    <defs>
     <path d="M 115.368287 -573.341956 
L 115.368287 -445.135963 
L 285.242551 -499.648794 
L 452.757449 -530.979385 
L 622.631713 -509.902363 
L 622.631713 -532.085259 
L 622.631713 -532.085259 
L 452.757449 -567.609463 
L 285.242551 -545.347618 
L 115.368287 -573.341956 
z
" id="mfc3afe22b2" style="stroke:#4c72b0;stroke-opacity:0.2;"/>
    </defs>
    <g clip-path="url(#pc8b45d2f72)">
     <use style="fill:#4c72b0;fill-opacity:0.2;stroke:#4c72b0;stroke-opacity:0.2;" x="0" xlink:href="#mfc3afe22b2" y="720"/>
    </g>
   </g>
   <g id="PolyCollection_2">
    <defs>
     <path d="M 115.368287 -344.638538 
L 115.368287 -169.846768 
L 285.242551 -419.522419 
L 452.757449 -415.889115 
L 622.631713 -482.906011 
L 622.631713 -495.285163 
L 622.631713 -495.285163 
L 452.757449 -465.156024 
L 285.242551 -438.195558 
L 115.368287 -344.638538 
z
" id="mcd47a4af4e" style="stroke:#dd8452;stroke-opacity:0.2;"/>
    </defs>
    <g clip-path="url(#pc8b45d2f72)">
     <use style="fill:#dd8452;fill-opacity:0.2;stroke:#dd8452;stroke-opacity:0.2;" x="0" xlink:href="#mcd47a4af4e" y="720"/>
    </g>
   </g>
   <g id="line2d_16">
    <path clip-path="url(#pc8b45d2f72)" d="M 115.368287 206.355833 
L 285.242551 197.56161 
L 452.757449 170.553603 
L 622.631713 198.889239 
" style="fill:none;stroke:#4c72b0;stroke-linecap:round;stroke-width:1.5;"/>
   </g>
   <g id="line2d_17">
    <path clip-path="url(#pc8b45d2f72)" d="M 115.368287 465.800584 
L 285.242551 290.108189 
L 452.757449 281.056981 
L 622.631713 231.035065 
" style="fill:none;stroke:#dd8452;stroke-linecap:round;stroke-width:1.5;"/>
   </g>
   <g id="line2d_18"/>
   <g id="line2d_19"/>
   <g id="line2d_20"/>
   <g id="patch_3">
    <path d="M 90 630 
L 90 86.4 
" style="fill:none;stroke:#cccccc;stroke-linecap:square;stroke-linejoin:miter;stroke-width:1.25;"/>
   </g>
   <g id="patch_4">
    <path d="M 648 630 
L 648 86.4 
" style="fill:none;stroke:#cccccc;stroke-linecap:square;stroke-linejoin:miter;stroke-width:1.25;"/>
   </g>
   <g id="patch_5">
    <path d="M 90 630 
L 648 630 
" style="fill:none;stroke:#cccccc;stroke-linecap:square;stroke-linejoin:miter;stroke-width:1.25;"/>
   </g>
   <g id="patch_6">
    <path d="M 90 86.4 
L 648 86.4 
" style="fill:none;stroke:#cccccc;stroke-linecap:square;stroke-linejoin:miter;stroke-width:1.25;"/>
   </g>
   <g id="legend_1">
    <g id="patch_7">
     <path d="M 583.703281 141.879531 
L 640.3 141.879531 
Q 642.5 141.879531 642.5 139.679531 
L 642.5 94.1 
Q 642.5 91.9 640.3 91.9 
L 583.703281 91.9 
Q 581.503281 91.9 581.503281 94.1 
L 581.503281 139.679531 
Q 581.503281 141.879531 583.703281 141.879531 
z
" style="fill:#ffffff;opacity:0.8;stroke:#cccccc;stroke-linejoin:miter;"/>
    </g>
    <g id="line2d_21">
     <path d="M 585.903281 100.323594 
L 607.903281 100.323594 
" style="fill:none;"/>
    </g>
    <g id="line2d_22"/>
    <g id="text_18">
     <!-- split -->
     <defs>
      <path d="M 6.59375 -19.875 
L 6.59375 51.859375 
L 14.59375 51.859375 
L 14.59375 45.125 
Q 17.4375 49.078125 21 51.046875 
Q 24.5625 53.03125 29.640625 53.03125 
Q 36.28125 53.03125 41.359375 49.609375 
Q 46.4375 46.1875 49.015625 39.953125 
Q 51.609375 33.734375 51.609375 26.3125 
Q 51.609375 18.359375 48.75 11.984375 
Q 45.90625 5.609375 40.453125 2.21875 
Q 35.015625 -1.171875 29 -1.171875 
Q 24.609375 -1.171875 21.109375 0.6875 
Q 17.625 2.546875 15.375 5.375 
L 15.375 -19.875 
z
M 14.546875 25.640625 
Q 14.546875 15.625 18.59375 10.84375 
Q 22.65625 6.0625 28.421875 6.0625 
Q 34.28125 6.0625 38.453125 11.015625 
Q 42.625 15.96875 42.625 26.375 
Q 42.625 36.28125 38.546875 41.203125 
Q 34.46875 46.140625 28.8125 46.140625 
Q 23.1875 46.140625 18.859375 40.890625 
Q 14.546875 35.640625 14.546875 25.640625 
z
" id="ArialMT-112"/>
      <path d="M 6.390625 0 
L 6.390625 71.578125 
L 15.1875 71.578125 
L 15.1875 0 
z
" id="ArialMT-108"/>
      <path d="M 25.78125 7.859375 
L 27.046875 0.09375 
Q 23.34375 -0.6875 20.40625 -0.6875 
Q 15.625 -0.6875 12.984375 0.828125 
Q 10.359375 2.34375 9.28125 4.8125 
Q 8.203125 7.28125 8.203125 15.1875 
L 8.203125 45.015625 
L 1.765625 45.015625 
L 1.765625 51.859375 
L 8.203125 51.859375 
L 8.203125 64.703125 
L 16.9375 69.96875 
L 16.9375 51.859375 
L 25.78125 51.859375 
L 25.78125 45.015625 
L 16.9375 45.015625 
L 16.9375 14.703125 
Q 16.9375 10.9375 17.40625 9.859375 
Q 17.875 8.796875 18.921875 8.15625 
Q 19.96875 7.515625 21.921875 7.515625 
Q 23.390625 7.515625 25.78125 7.859375 
z
" id="ArialMT-116"/>
     </defs>
     <g style="fill:#262626;" transform="translate(616.703281 104.173594)scale(0.11 -0.11)">
      <use xlink:href="#ArialMT-115"/>
      <use x="50" xlink:href="#ArialMT-112"/>
      <use x="105.615234" xlink:href="#ArialMT-108"/>
      <use x="127.832031" xlink:href="#ArialMT-105"/>
      <use x="150.048828" xlink:href="#ArialMT-116"/>
     </g>
    </g>
    <g id="line2d_23">
     <path d="M 585.903281 115.883438 
L 607.903281 115.883438 
" style="fill:none;stroke:#4c72b0;stroke-linecap:round;stroke-width:1.5;"/>
    </g>
    <g id="line2d_24"/>
    <g id="text_19">
     <!-- train -->
     <defs>
      <path d="M 6.59375 0 
L 6.59375 51.859375 
L 14.5 51.859375 
L 14.5 44.484375 
Q 20.21875 53.03125 31 53.03125 
Q 35.6875 53.03125 39.625 51.34375 
Q 43.5625 49.65625 45.515625 46.921875 
Q 47.46875 44.1875 48.25 40.4375 
Q 48.734375 37.984375 48.734375 31.890625 
L 48.734375 0 
L 39.9375 0 
L 39.9375 31.546875 
Q 39.9375 36.921875 38.90625 39.578125 
Q 37.890625 42.234375 35.28125 43.8125 
Q 32.671875 45.40625 29.15625 45.40625 
Q 23.53125 45.40625 19.453125 41.84375 
Q 15.375 38.28125 15.375 28.328125 
L 15.375 0 
z
" id="ArialMT-110"/>
     </defs>
     <g style="fill:#262626;" transform="translate(616.703281 119.733438)scale(0.11 -0.11)">
      <use xlink:href="#ArialMT-116"/>
      <use x="27.783203" xlink:href="#ArialMT-114"/>
      <use x="61.083984" xlink:href="#ArialMT-97"/>
      <use x="116.699219" xlink:href="#ArialMT-105"/>
      <use x="138.916016" xlink:href="#ArialMT-110"/>
     </g>
    </g>
    <g id="line2d_25">
     <path d="M 585.903281 131.443281 
L 607.903281 131.443281 
" style="fill:none;stroke:#dd8452;stroke-linecap:round;stroke-width:1.5;"/>
    </g>
    <g id="line2d_26"/>
    <g id="text_20">
     <!-- test -->
     <g style="fill:#262626;" transform="translate(616.703281 135.293281)scale(0.11 -0.11)">
      <use xlink:href="#ArialMT-116"/>
      <use x="27.783203" xlink:href="#ArialMT-101"/>
      <use x="83.398438" xlink:href="#ArialMT-115"/>
      <use x="133.398438" xlink:href="#ArialMT-116"/>
     </g>
    </g>
   </g>
  </g>
 </g>
 <defs>
  <clipPath id="pc8b45d2f72">
   <rect height="543.6" width="558" x="90" y="86.4"/>
  </clipPath>
 </defs>
</svg>
