<?xml version="1.0" encoding="utf-8" standalone="no"?>
<!DOCTYPE svg PUBLIC "-//W3C//DTD SVG 1.1//EN"
  "http://www.w3.org/Graphics/SVG/1.1/DTD/svg11.dtd">
<!-- Created with matplotlib (https://matplotlib.org/) -->
<svg height="432pt" version="1.1" viewBox="0 0 720 432" width="720pt" xmlns="http://www.w3.org/2000/svg" xmlns:xlink="http://www.w3.org/1999/xlink">
 <defs>
  <style type="text/css">
*{stroke-linecap:butt;stroke-linejoin:round;}
  </style>
 </defs>
 <g id="figure_1">
  <g id="patch_1">
   <path d="M 0 432 
L 720 432 
L 720 0 
L 0 0 
z
" style="fill:#ffffff;"/>
  </g>
  <g id="axes_1">
   <g id="patch_2">
    <path d="M 90 378 
L 648 378 
L 648 51.84 
L 90 51.84 
z
" style="fill:#ffffff;"/>
   </g>
   <g id="matplotlib.axis_1">
    <g id="xtick_1">
     <g id="line2d_1">
      <path clip-path="url(#p46ed19e432)" d="M 117.363636 378 
L 117.363636 51.84 
" style="fill:none;stroke:#cccccc;stroke-linecap:round;"/>
     </g>
     <g id="text_1">
      <!-- 0.0 -->
      <defs>
       <path d="M 4.15625 35.296875 
Q 4.15625 48 6.765625 55.734375 
Q 9.375 63.484375 14.515625 67.671875 
Q 19.671875 71.875 27.484375 71.875 
Q 33.25 71.875 37.59375 69.546875 
Q 41.9375 67.234375 44.765625 62.859375 
Q 47.609375 58.5 49.21875 52.21875 
Q 50.828125 45.953125 50.828125 35.296875 
Q 50.828125 22.703125 48.234375 14.96875 
Q 45.65625 7.234375 40.5 3 
Q 35.359375 -1.21875 27.484375 -1.21875 
Q 17.140625 -1.21875 11.234375 6.203125 
Q 4.15625 15.140625 4.15625 35.296875 
z
M 13.1875 35.296875 
Q 13.1875 17.671875 17.3125 11.828125 
Q 21.4375 6 27.484375 6 
Q 33.546875 6 37.671875 11.859375 
Q 41.796875 17.71875 41.796875 35.296875 
Q 41.796875 52.984375 37.671875 58.78125 
Q 33.546875 64.59375 27.390625 64.59375 
Q 21.34375 64.59375 17.71875 59.46875 
Q 13.1875 52.9375 13.1875 35.296875 
z
" id="ArialMT-48"/>
       <path d="M 9.078125 0 
L 9.078125 10.015625 
L 19.09375 10.015625 
L 19.09375 0 
z
" id="ArialMT-46"/>
      </defs>
      <g style="fill:#262626;" transform="translate(109.718636 395.373594)scale(0.11 -0.11)">
       <use xlink:href="#ArialMT-48"/>
       <use x="55.615234" xlink:href="#ArialMT-46"/>
       <use x="83.398438" xlink:href="#ArialMT-48"/>
      </g>
     </g>
    </g>
    <g id="xtick_2">
     <g id="line2d_2">
      <path clip-path="url(#p46ed19e432)" d="M 193.261044 378 
L 193.261044 51.84 
" style="fill:none;stroke:#cccccc;stroke-linecap:round;"/>
     </g>
     <g id="text_2">
      <!-- 0.2 -->
      <defs>
       <path d="M 50.34375 8.453125 
L 50.34375 0 
L 3.03125 0 
Q 2.9375 3.171875 4.046875 6.109375 
Q 5.859375 10.9375 9.828125 15.625 
Q 13.8125 20.3125 21.34375 26.46875 
Q 33.015625 36.03125 37.109375 41.625 
Q 41.21875 47.21875 41.21875 52.203125 
Q 41.21875 57.421875 37.46875 61 
Q 33.734375 64.59375 27.734375 64.59375 
Q 21.390625 64.59375 17.578125 60.78125 
Q 13.765625 56.984375 13.71875 50.25 
L 4.6875 51.171875 
Q 5.609375 61.28125 11.65625 66.578125 
Q 17.71875 71.875 27.9375 71.875 
Q 38.234375 71.875 44.234375 66.15625 
Q 50.25 60.453125 50.25 52 
Q 50.25 47.703125 48.484375 43.546875 
Q 46.734375 39.40625 42.65625 34.8125 
Q 38.578125 30.21875 29.109375 22.21875 
Q 21.1875 15.578125 18.9375 13.203125 
Q 16.703125 10.84375 15.234375 8.453125 
z
" id="ArialMT-50"/>
      </defs>
      <g style="fill:#262626;" transform="translate(185.616044 395.373594)scale(0.11 -0.11)">
       <use xlink:href="#ArialMT-48"/>
       <use x="55.615234" xlink:href="#ArialMT-46"/>
       <use x="83.398438" xlink:href="#ArialMT-50"/>
      </g>
     </g>
    </g>
    <g id="xtick_3">
     <g id="line2d_3">
      <path clip-path="url(#p46ed19e432)" d="M 269.158452 378 
L 269.158452 51.84 
" style="fill:none;stroke:#cccccc;stroke-linecap:round;"/>
     </g>
     <g id="text_3">
      <!-- 0.4 -->
      <defs>
       <path d="M 32.328125 0 
L 32.328125 17.140625 
L 1.265625 17.140625 
L 1.265625 25.203125 
L 33.9375 71.578125 
L 41.109375 71.578125 
L 41.109375 25.203125 
L 50.78125 25.203125 
L 50.78125 17.140625 
L 41.109375 17.140625 
L 41.109375 0 
z
M 32.328125 25.203125 
L 32.328125 57.46875 
L 9.90625 25.203125 
z
" id="ArialMT-52"/>
      </defs>
      <g style="fill:#262626;" transform="translate(261.513452 395.373594)scale(0.11 -0.11)">
       <use xlink:href="#ArialMT-48"/>
       <use x="55.615234" xlink:href="#ArialMT-46"/>
       <use x="83.398438" xlink:href="#ArialMT-52"/>
      </g>
     </g>
    </g>
    <g id="xtick_4">
     <g id="line2d_4">
      <path clip-path="url(#p46ed19e432)" d="M 345.05586 378 
L 345.05586 51.84 
" style="fill:none;stroke:#cccccc;stroke-linecap:round;"/>
     </g>
     <g id="text_4">
      <!-- 0.6 -->
      <defs>
       <path d="M 49.75 54.046875 
L 41.015625 53.375 
Q 39.84375 58.546875 37.703125 60.890625 
Q 34.125 64.65625 28.90625 64.65625 
Q 24.703125 64.65625 21.53125 62.3125 
Q 17.390625 59.28125 14.984375 53.46875 
Q 12.59375 47.65625 12.5 36.921875 
Q 15.671875 41.75 20.265625 44.09375 
Q 24.859375 46.4375 29.890625 46.4375 
Q 38.671875 46.4375 44.84375 39.96875 
Q 51.03125 33.5 51.03125 23.25 
Q 51.03125 16.5 48.125 10.71875 
Q 45.21875 4.9375 40.140625 1.859375 
Q 35.0625 -1.21875 28.609375 -1.21875 
Q 17.625 -1.21875 10.6875 6.859375 
Q 3.765625 14.9375 3.765625 33.5 
Q 3.765625 54.25 11.421875 63.671875 
Q 18.109375 71.875 29.4375 71.875 
Q 37.890625 71.875 43.28125 67.140625 
Q 48.6875 62.40625 49.75 54.046875 
z
M 13.875 23.1875 
Q 13.875 18.65625 15.796875 14.5 
Q 17.71875 10.359375 21.1875 8.171875 
Q 24.65625 6 28.46875 6 
Q 34.03125 6 38.03125 10.484375 
Q 42.046875 14.984375 42.046875 22.703125 
Q 42.046875 30.125 38.078125 34.390625 
Q 34.125 38.671875 28.125 38.671875 
Q 22.171875 38.671875 18.015625 34.390625 
Q 13.875 30.125 13.875 23.1875 
z
" id="ArialMT-54"/>
      </defs>
      <g style="fill:#262626;" transform="translate(337.41086 395.373594)scale(0.11 -0.11)">
       <use xlink:href="#ArialMT-48"/>
       <use x="55.615234" xlink:href="#ArialMT-46"/>
       <use x="83.398438" xlink:href="#ArialMT-54"/>
      </g>
     </g>
    </g>
    <g id="xtick_5">
     <g id="line2d_5">
      <path clip-path="url(#p46ed19e432)" d="M 420.953268 378 
L 420.953268 51.84 
" style="fill:none;stroke:#cccccc;stroke-linecap:round;"/>
     </g>
     <g id="text_5">
      <!-- 0.8 -->
      <defs>
       <path d="M 17.671875 38.8125 
Q 12.203125 40.828125 9.5625 44.53125 
Q 6.9375 48.25 6.9375 53.421875 
Q 6.9375 61.234375 12.546875 66.546875 
Q 18.171875 71.875 27.484375 71.875 
Q 36.859375 71.875 42.578125 66.421875 
Q 48.296875 60.984375 48.296875 53.171875 
Q 48.296875 48.1875 45.671875 44.5 
Q 43.0625 40.828125 37.75 38.8125 
Q 44.34375 36.671875 47.78125 31.875 
Q 51.21875 27.09375 51.21875 20.453125 
Q 51.21875 11.28125 44.71875 5.03125 
Q 38.234375 -1.21875 27.640625 -1.21875 
Q 17.046875 -1.21875 10.546875 5.046875 
Q 4.046875 11.328125 4.046875 20.703125 
Q 4.046875 27.6875 7.59375 32.390625 
Q 11.140625 37.109375 17.671875 38.8125 
z
M 15.921875 53.71875 
Q 15.921875 48.640625 19.1875 45.40625 
Q 22.46875 42.1875 27.6875 42.1875 
Q 32.765625 42.1875 36.015625 45.375 
Q 39.265625 48.578125 39.265625 53.21875 
Q 39.265625 58.0625 35.90625 61.359375 
Q 32.5625 64.65625 27.59375 64.65625 
Q 22.5625 64.65625 19.234375 61.421875 
Q 15.921875 58.203125 15.921875 53.71875 
z
M 13.09375 20.65625 
Q 13.09375 16.890625 14.875 13.375 
Q 16.65625 9.859375 20.171875 7.921875 
Q 23.6875 6 27.734375 6 
Q 34.03125 6 38.125 10.046875 
Q 42.234375 14.109375 42.234375 20.359375 
Q 42.234375 26.703125 38.015625 30.859375 
Q 33.796875 35.015625 27.4375 35.015625 
Q 21.234375 35.015625 17.15625 30.90625 
Q 13.09375 26.8125 13.09375 20.65625 
z
" id="ArialMT-56"/>
      </defs>
      <g style="fill:#262626;" transform="translate(413.308268 395.373594)scale(0.11 -0.11)">
       <use xlink:href="#ArialMT-48"/>
       <use x="55.615234" xlink:href="#ArialMT-46"/>
       <use x="83.398438" xlink:href="#ArialMT-56"/>
      </g>
     </g>
    </g>
    <g id="xtick_6">
     <g id="line2d_6">
      <path clip-path="url(#p46ed19e432)" d="M 496.850676 378 
L 496.850676 51.84 
" style="fill:none;stroke:#cccccc;stroke-linecap:round;"/>
     </g>
     <g id="text_6">
      <!-- 1.0 -->
      <defs>
       <path d="M 37.25 0 
L 28.46875 0 
L 28.46875 56 
Q 25.296875 52.984375 20.140625 49.953125 
Q 14.984375 46.921875 10.890625 45.40625 
L 10.890625 53.90625 
Q 18.265625 57.375 23.78125 62.296875 
Q 29.296875 67.234375 31.59375 71.875 
L 37.25 71.875 
z
" id="ArialMT-49"/>
      </defs>
      <g style="fill:#262626;" transform="translate(489.205676 395.373594)scale(0.11 -0.11)">
       <use xlink:href="#ArialMT-49"/>
       <use x="55.615234" xlink:href="#ArialMT-46"/>
       <use x="83.398438" xlink:href="#ArialMT-48"/>
      </g>
     </g>
    </g>
    <g id="xtick_7">
     <g id="line2d_7">
      <path clip-path="url(#p46ed19e432)" d="M 572.748084 378 
L 572.748084 51.84 
" style="fill:none;stroke:#cccccc;stroke-linecap:round;"/>
     </g>
     <g id="text_7">
      <!-- 1.2 -->
      <g style="fill:#262626;" transform="translate(565.103084 395.373594)scale(0.11 -0.11)">
       <use xlink:href="#ArialMT-49"/>
       <use x="55.615234" xlink:href="#ArialMT-46"/>
       <use x="83.398438" xlink:href="#ArialMT-50"/>
      </g>
     </g>
    </g>
    <g id="text_8">
     <!-- FIOP_conversion -->
     <defs>
      <path d="M 8.203125 0 
L 8.203125 71.578125 
L 56.5 71.578125 
L 56.5 63.140625 
L 17.671875 63.140625 
L 17.671875 40.96875 
L 51.265625 40.96875 
L 51.265625 32.515625 
L 17.671875 32.515625 
L 17.671875 0 
z
" id="ArialMT-70"/>
      <path d="M 9.328125 0 
L 9.328125 71.578125 
L 18.796875 71.578125 
L 18.796875 0 
z
" id="ArialMT-73"/>
      <path d="M 4.828125 34.859375 
Q 4.828125 52.6875 14.390625 62.765625 
Q 23.96875 72.859375 39.109375 72.859375 
Q 49.03125 72.859375 56.984375 68.109375 
Q 64.9375 63.375 69.109375 54.90625 
Q 73.296875 46.4375 73.296875 35.6875 
Q 73.296875 24.8125 68.890625 16.21875 
Q 64.5 7.625 56.4375 3.203125 
Q 48.390625 -1.21875 39.0625 -1.21875 
Q 28.953125 -1.21875 20.984375 3.65625 
Q 13.03125 8.546875 8.921875 16.984375 
Q 4.828125 25.4375 4.828125 34.859375 
z
M 14.59375 34.71875 
Q 14.59375 21.78125 21.546875 14.328125 
Q 28.515625 6.890625 39.015625 6.890625 
Q 49.703125 6.890625 56.609375 14.40625 
Q 63.53125 21.921875 63.53125 35.75 
Q 63.53125 44.484375 60.578125 51 
Q 57.625 57.515625 51.921875 61.109375 
Q 46.234375 64.703125 39.15625 64.703125 
Q 29.109375 64.703125 21.84375 57.78125 
Q 14.59375 50.875 14.59375 34.71875 
z
" id="ArialMT-79"/>
      <path d="M 7.71875 0 
L 7.71875 71.578125 
L 34.71875 71.578125 
Q 41.84375 71.578125 45.609375 70.90625 
Q 50.875 70.015625 54.4375 67.546875 
Q 58.015625 65.09375 60.1875 60.640625 
Q 62.359375 56.203125 62.359375 50.875 
Q 62.359375 41.75 56.546875 35.421875 
Q 50.734375 29.109375 35.546875 29.109375 
L 17.1875 29.109375 
L 17.1875 0 
z
M 17.1875 37.546875 
L 35.6875 37.546875 
Q 44.875 37.546875 48.734375 40.96875 
Q 52.59375 44.390625 52.59375 50.59375 
Q 52.59375 55.078125 50.3125 58.265625 
Q 48.046875 61.46875 44.34375 62.5 
Q 41.9375 63.140625 35.5 63.140625 
L 17.1875 63.140625 
z
" id="ArialMT-80"/>
      <path d="M -1.515625 -19.875 
L -1.515625 -13.53125 
L 56.734375 -13.53125 
L 56.734375 -19.875 
z
" id="ArialMT-95"/>
      <path d="M 40.4375 19 
L 49.078125 17.875 
Q 47.65625 8.9375 41.8125 3.875 
Q 35.984375 -1.171875 27.484375 -1.171875 
Q 16.84375 -1.171875 10.375 5.78125 
Q 3.90625 12.75 3.90625 25.734375 
Q 3.90625 34.125 6.6875 40.421875 
Q 9.46875 46.734375 15.15625 49.875 
Q 20.84375 53.03125 27.546875 53.03125 
Q 35.984375 53.03125 41.359375 48.75 
Q 46.734375 44.484375 48.25 36.625 
L 39.703125 35.296875 
Q 38.484375 40.53125 35.375 43.15625 
Q 32.28125 45.796875 27.875 45.796875 
Q 21.234375 45.796875 17.078125 41.03125 
Q 12.9375 36.28125 12.9375 25.984375 
Q 12.9375 15.53125 16.9375 10.796875 
Q 20.953125 6.0625 27.390625 6.0625 
Q 32.5625 6.0625 36.03125 9.234375 
Q 39.5 12.40625 40.4375 19 
z
" id="ArialMT-99"/>
      <path d="M 3.328125 25.921875 
Q 3.328125 40.328125 11.328125 47.265625 
Q 18.015625 53.03125 27.640625 53.03125 
Q 38.328125 53.03125 45.109375 46.015625 
Q 51.90625 39.015625 51.90625 26.65625 
Q 51.90625 16.65625 48.90625 10.90625 
Q 45.90625 5.171875 40.15625 2 
Q 34.421875 -1.171875 27.640625 -1.171875 
Q 16.75 -1.171875 10.03125 5.8125 
Q 3.328125 12.796875 3.328125 25.921875 
z
M 12.359375 25.921875 
Q 12.359375 15.96875 16.703125 11.015625 
Q 21.046875 6.0625 27.640625 6.0625 
Q 34.1875 6.0625 38.53125 11.03125 
Q 42.875 16.015625 42.875 26.21875 
Q 42.875 35.84375 38.5 40.796875 
Q 34.125 45.75 27.640625 45.75 
Q 21.046875 45.75 16.703125 40.8125 
Q 12.359375 35.890625 12.359375 25.921875 
z
" id="ArialMT-111"/>
      <path d="M 6.59375 0 
L 6.59375 51.859375 
L 14.5 51.859375 
L 14.5 44.484375 
Q 20.21875 53.03125 31 53.03125 
Q 35.6875 53.03125 39.625 51.34375 
Q 43.5625 49.65625 45.515625 46.921875 
Q 47.46875 44.1875 48.25 40.4375 
Q 48.734375 37.984375 48.734375 31.890625 
L 48.734375 0 
L 39.9375 0 
L 39.9375 31.546875 
Q 39.9375 36.921875 38.90625 39.578125 
Q 37.890625 42.234375 35.28125 43.8125 
Q 32.671875 45.40625 29.15625 45.40625 
Q 23.53125 45.40625 19.453125 41.84375 
Q 15.375 38.28125 15.375 28.328125 
L 15.375 0 
z
" id="ArialMT-110"/>
      <path d="M 21 0 
L 1.265625 51.859375 
L 10.546875 51.859375 
L 21.6875 20.796875 
Q 23.484375 15.765625 25 10.359375 
Q 26.171875 14.453125 28.265625 20.21875 
L 39.796875 51.859375 
L 48.828125 51.859375 
L 29.203125 0 
z
" id="ArialMT-118"/>
      <path d="M 42.09375 16.703125 
L 51.171875 15.578125 
Q 49.03125 7.625 43.21875 3.21875 
Q 37.40625 -1.171875 28.375 -1.171875 
Q 17 -1.171875 10.328125 5.828125 
Q 3.65625 12.84375 3.65625 25.484375 
Q 3.65625 38.578125 10.390625 45.796875 
Q 17.140625 53.03125 27.875 53.03125 
Q 38.28125 53.03125 44.875 45.953125 
Q 51.46875 38.875 51.46875 26.03125 
Q 51.46875 25.25 51.421875 23.6875 
L 12.75 23.6875 
Q 13.234375 15.140625 17.578125 10.59375 
Q 21.921875 6.0625 28.421875 6.0625 
Q 33.25 6.0625 36.671875 8.59375 
Q 40.09375 11.140625 42.09375 16.703125 
z
M 13.234375 30.90625 
L 42.1875 30.90625 
Q 41.609375 37.453125 38.875 40.71875 
Q 34.671875 45.796875 27.984375 45.796875 
Q 21.921875 45.796875 17.796875 41.75 
Q 13.671875 37.703125 13.234375 30.90625 
z
" id="ArialMT-101"/>
      <path d="M 6.5 0 
L 6.5 51.859375 
L 14.40625 51.859375 
L 14.40625 44 
Q 17.4375 49.515625 20 51.265625 
Q 22.5625 53.03125 25.640625 53.03125 
Q 30.078125 53.03125 34.671875 50.203125 
L 31.640625 42.046875 
Q 28.421875 43.953125 25.203125 43.953125 
Q 22.3125 43.953125 20.015625 42.21875 
Q 17.71875 40.484375 16.75 37.40625 
Q 15.28125 32.71875 15.28125 27.15625 
L 15.28125 0 
z
" id="ArialMT-114"/>
      <path d="M 3.078125 15.484375 
L 11.765625 16.84375 
Q 12.5 11.625 15.84375 8.84375 
Q 19.1875 6.0625 25.203125 6.0625 
Q 31.25 6.0625 34.171875 8.515625 
Q 37.109375 10.984375 37.109375 14.3125 
Q 37.109375 17.28125 34.515625 19 
Q 32.71875 20.171875 25.53125 21.96875 
Q 15.875 24.421875 12.140625 26.203125 
Q 8.40625 27.984375 6.46875 31.125 
Q 4.546875 34.28125 4.546875 38.09375 
Q 4.546875 41.546875 6.125 44.5 
Q 7.71875 47.46875 10.453125 49.421875 
Q 12.5 50.921875 16.03125 51.96875 
Q 19.578125 53.03125 23.640625 53.03125 
Q 29.734375 53.03125 34.34375 51.265625 
Q 38.96875 49.515625 41.15625 46.5 
Q 43.359375 43.5 44.1875 38.484375 
L 35.59375 37.3125 
Q 35.015625 41.3125 32.203125 43.546875 
Q 29.390625 45.796875 24.265625 45.796875 
Q 18.21875 45.796875 15.625 43.796875 
Q 13.03125 41.796875 13.03125 39.109375 
Q 13.03125 37.40625 14.109375 36.03125 
Q 15.1875 34.625 17.484375 33.6875 
Q 18.796875 33.203125 25.25 31.453125 
Q 34.578125 28.953125 38.25 27.359375 
Q 41.9375 25.78125 44.03125 22.75 
Q 46.140625 19.734375 46.140625 15.234375 
Q 46.140625 10.84375 43.578125 6.953125 
Q 41.015625 3.078125 36.171875 0.953125 
Q 31.34375 -1.171875 25.25 -1.171875 
Q 15.140625 -1.171875 9.84375 3.03125 
Q 4.546875 7.234375 3.078125 15.484375 
z
" id="ArialMT-115"/>
      <path d="M 6.640625 61.46875 
L 6.640625 71.578125 
L 15.4375 71.578125 
L 15.4375 61.46875 
z
M 6.640625 0 
L 6.640625 51.859375 
L 15.4375 51.859375 
L 15.4375 0 
z
" id="ArialMT-105"/>
     </defs>
     <g style="fill:#262626;" transform="translate(322.649063 410.302969)scale(0.12 -0.12)">
      <use xlink:href="#ArialMT-70"/>
      <use x="61.083984" xlink:href="#ArialMT-73"/>
      <use x="88.867188" xlink:href="#ArialMT-79"/>
      <use x="166.650391" xlink:href="#ArialMT-80"/>
      <use x="233.349609" xlink:href="#ArialMT-95"/>
      <use x="288.964844" xlink:href="#ArialMT-99"/>
      <use x="338.964844" xlink:href="#ArialMT-111"/>
      <use x="394.580078" xlink:href="#ArialMT-110"/>
      <use x="450.195312" xlink:href="#ArialMT-118"/>
      <use x="500.195312" xlink:href="#ArialMT-101"/>
      <use x="555.810547" xlink:href="#ArialMT-114"/>
      <use x="589.111328" xlink:href="#ArialMT-115"/>
      <use x="639.111328" xlink:href="#ArialMT-105"/>
      <use x="661.328125" xlink:href="#ArialMT-111"/>
      <use x="716.943359" xlink:href="#ArialMT-110"/>
     </g>
    </g>
   </g>
   <g id="matplotlib.axis_2">
    <g id="ytick_1">
     <g id="text_9">
      <!-- const -->
      <defs>
       <path d="M 25.78125 7.859375 
L 27.046875 0.09375 
Q 23.34375 -0.6875 20.40625 -0.6875 
Q 15.625 -0.6875 12.984375 0.828125 
Q 10.359375 2.34375 9.28125 4.8125 
Q 8.203125 7.28125 8.203125 15.1875 
L 8.203125 45.015625 
L 1.765625 45.015625 
L 1.765625 51.859375 
L 8.203125 51.859375 
L 8.203125 64.703125 
L 16.9375 69.96875 
L 16.9375 51.859375 
L 25.78125 51.859375 
L 25.78125 45.015625 
L 16.9375 45.015625 
L 16.9375 14.703125 
Q 16.9375 10.9375 17.40625 9.859375 
Q 17.875 8.796875 18.921875 8.15625 
Q 19.96875 7.515625 21.921875 7.515625 
Q 23.390625 7.515625 25.78125 7.859375 
z
" id="ArialMT-116"/>
      </defs>
      <g style="fill:#262626;" transform="translate(54.21 69.366797)scale(0.11 -0.11)">
       <use xlink:href="#ArialMT-99"/>
       <use x="50" xlink:href="#ArialMT-111"/>
       <use x="105.615234" xlink:href="#ArialMT-110"/>
       <use x="161.230469" xlink:href="#ArialMT-115"/>
       <use x="211.230469" xlink:href="#ArialMT-116"/>
      </g>
     </g>
    </g>
    <g id="ytick_2">
     <g id="text_10">
      <!-- A86E -->
      <defs>
       <path d="M -0.140625 0 
L 27.34375 71.578125 
L 37.546875 71.578125 
L 66.84375 0 
L 56.0625 0 
L 47.703125 21.6875 
L 17.78125 21.6875 
L 9.90625 0 
z
M 20.515625 29.390625 
L 44.78125 29.390625 
L 37.3125 49.21875 
Q 33.890625 58.25 32.234375 64.0625 
Q 30.859375 57.171875 28.375 50.390625 
z
" id="ArialMT-65"/>
       <path d="M 7.90625 0 
L 7.90625 71.578125 
L 59.671875 71.578125 
L 59.671875 63.140625 
L 17.390625 63.140625 
L 17.390625 41.21875 
L 56.984375 41.21875 
L 56.984375 32.8125 
L 17.390625 32.8125 
L 17.390625 8.453125 
L 61.328125 8.453125 
L 61.328125 0 
z
" id="ArialMT-69"/>
      </defs>
      <g style="fill:#262626;" transform="translate(53.59125 96.546797)scale(0.11 -0.11)">
       <use xlink:href="#ArialMT-65"/>
       <use x="66.699219" xlink:href="#ArialMT-56"/>
       <use x="122.314453" xlink:href="#ArialMT-54"/>
       <use x="177.929688" xlink:href="#ArialMT-69"/>
      </g>
     </g>
    </g>
    <g id="ytick_3">
     <g id="text_11">
      <!-- I91K -->
      <defs>
       <path d="M 5.46875 16.546875 
L 13.921875 17.328125 
Q 14.984375 11.375 18.015625 8.6875 
Q 21.046875 6 25.78125 6 
Q 29.828125 6 32.875 7.859375 
Q 35.9375 9.71875 37.890625 12.8125 
Q 39.84375 15.921875 41.15625 21.1875 
Q 42.484375 26.46875 42.484375 31.9375 
Q 42.484375 32.515625 42.4375 33.6875 
Q 39.796875 29.5 35.234375 26.875 
Q 30.671875 24.265625 25.34375 24.265625 
Q 16.453125 24.265625 10.296875 30.703125 
Q 4.15625 37.15625 4.15625 47.703125 
Q 4.15625 58.59375 10.578125 65.234375 
Q 17 71.875 26.65625 71.875 
Q 33.640625 71.875 39.421875 68.109375 
Q 45.21875 64.359375 48.21875 57.390625 
Q 51.21875 50.4375 51.21875 37.25 
Q 51.21875 23.53125 48.234375 15.40625 
Q 45.265625 7.28125 39.375 3.03125 
Q 33.5 -1.21875 25.59375 -1.21875 
Q 17.1875 -1.21875 11.859375 3.4375 
Q 6.546875 8.109375 5.46875 16.546875 
z
M 41.453125 48.140625 
Q 41.453125 55.71875 37.421875 60.15625 
Q 33.40625 64.59375 27.734375 64.59375 
Q 21.875 64.59375 17.53125 59.8125 
Q 13.1875 55.03125 13.1875 47.40625 
Q 13.1875 40.578125 17.3125 36.296875 
Q 21.4375 32.03125 27.484375 32.03125 
Q 33.59375 32.03125 37.515625 36.296875 
Q 41.453125 40.578125 41.453125 48.140625 
z
" id="ArialMT-57"/>
       <path d="M 7.328125 0 
L 7.328125 71.578125 
L 16.796875 71.578125 
L 16.796875 36.078125 
L 52.34375 71.578125 
L 65.1875 71.578125 
L 35.15625 42.578125 
L 66.5 0 
L 54 0 
L 28.515625 36.234375 
L 16.796875 24.8125 
L 16.796875 0 
z
" id="ArialMT-75"/>
      </defs>
      <g style="fill:#262626;" transform="translate(57.872656 123.726797)scale(0.11 -0.11)">
       <use xlink:href="#ArialMT-73"/>
       <use x="27.783203" xlink:href="#ArialMT-57"/>
       <use x="83.398438" xlink:href="#ArialMT-49"/>
       <use x="139.013672" xlink:href="#ArialMT-75"/>
      </g>
     </g>
    </g>
    <g id="ytick_4">
     <g id="text_12">
      <!-- D103E -->
      <defs>
       <path d="M 7.71875 0 
L 7.71875 71.578125 
L 32.375 71.578125 
Q 40.71875 71.578125 45.125 70.5625 
Q 51.265625 69.140625 55.609375 65.4375 
Q 61.28125 60.640625 64.078125 53.1875 
Q 66.890625 45.75 66.890625 36.1875 
Q 66.890625 28.03125 64.984375 21.734375 
Q 63.09375 15.4375 60.109375 11.296875 
Q 57.125 7.171875 53.578125 4.796875 
Q 50.046875 2.4375 45.046875 1.21875 
Q 40.046875 0 33.546875 0 
z
M 17.1875 8.453125 
L 32.46875 8.453125 
Q 39.546875 8.453125 43.578125 9.765625 
Q 47.609375 11.078125 50 13.484375 
Q 53.375 16.84375 55.25 22.53125 
Q 57.125 28.21875 57.125 36.328125 
Q 57.125 47.5625 53.4375 53.59375 
Q 49.75 59.625 44.484375 61.671875 
Q 40.671875 63.140625 32.234375 63.140625 
L 17.1875 63.140625 
z
" id="ArialMT-68"/>
       <path d="M 4.203125 18.890625 
L 12.984375 20.0625 
Q 14.5 12.59375 18.140625 9.296875 
Q 21.78125 6 27 6 
Q 33.203125 6 37.46875 10.296875 
Q 41.75 14.59375 41.75 20.953125 
Q 41.75 27 37.796875 30.921875 
Q 33.84375 34.859375 27.734375 34.859375 
Q 25.25 34.859375 21.53125 33.890625 
L 22.515625 41.609375 
Q 23.390625 41.5 23.921875 41.5 
Q 29.546875 41.5 34.03125 44.421875 
Q 38.53125 47.359375 38.53125 53.46875 
Q 38.53125 58.296875 35.25 61.46875 
Q 31.984375 64.65625 26.8125 64.65625 
Q 21.6875 64.65625 18.265625 61.421875 
Q 14.84375 58.203125 13.875 51.765625 
L 5.078125 53.328125 
Q 6.6875 62.15625 12.390625 67.015625 
Q 18.109375 71.875 26.609375 71.875 
Q 32.46875 71.875 37.390625 69.359375 
Q 42.328125 66.84375 44.9375 62.5 
Q 47.5625 58.15625 47.5625 53.265625 
Q 47.5625 48.640625 45.0625 44.828125 
Q 42.578125 41.015625 37.703125 38.765625 
Q 44.046875 37.3125 47.5625 32.6875 
Q 51.078125 28.078125 51.078125 21.140625 
Q 51.078125 11.765625 44.234375 5.25 
Q 37.40625 -1.265625 26.953125 -1.265625 
Q 17.53125 -1.265625 11.296875 4.34375 
Q 5.078125 9.96875 4.203125 18.890625 
z
" id="ArialMT-51"/>
      </defs>
      <g style="fill:#262626;" transform="translate(46.8675 150.906797)scale(0.11 -0.11)">
       <use xlink:href="#ArialMT-68"/>
       <use x="72.216797" xlink:href="#ArialMT-49"/>
       <use x="127.832031" xlink:href="#ArialMT-48"/>
       <use x="183.447266" xlink:href="#ArialMT-51"/>
       <use x="239.0625" xlink:href="#ArialMT-69"/>
      </g>
     </g>
    </g>
    <g id="ytick_5">
     <g id="text_13">
      <!-- A132F -->
      <g style="fill:#262626;" transform="translate(48.092969 178.086797)scale(0.11 -0.11)">
       <use xlink:href="#ArialMT-65"/>
       <use x="66.699219" xlink:href="#ArialMT-49"/>
       <use x="122.314453" xlink:href="#ArialMT-51"/>
       <use x="177.929688" xlink:href="#ArialMT-50"/>
       <use x="233.544922" xlink:href="#ArialMT-70"/>
      </g>
     </g>
    </g>
    <g id="ytick_6">
     <g id="text_14">
      <!-- I149E -->
      <g style="fill:#262626;" transform="translate(51.755625 205.266797)scale(0.11 -0.11)">
       <use xlink:href="#ArialMT-73"/>
       <use x="27.783203" xlink:href="#ArialMT-49"/>
       <use x="83.398438" xlink:href="#ArialMT-52"/>
       <use x="139.013672" xlink:href="#ArialMT-57"/>
       <use x="194.628906" xlink:href="#ArialMT-69"/>
      </g>
     </g>
    </g>
    <g id="ytick_7">
     <g id="text_15">
      <!-- Y153E -->
      <defs>
       <path d="M 27.875 0 
L 27.875 30.328125 
L 0.296875 71.578125 
L 11.8125 71.578125 
L 25.921875 50 
Q 29.828125 43.953125 33.203125 37.890625 
Q 36.421875 43.5 41.015625 50.53125 
L 54.890625 71.578125 
L 65.921875 71.578125 
L 37.359375 30.328125 
L 37.359375 0 
z
" id="ArialMT-89"/>
       <path d="M 4.15625 18.75 
L 13.375 19.53125 
Q 14.40625 12.796875 18.140625 9.390625 
Q 21.875 6 27.15625 6 
Q 33.5 6 37.890625 10.78125 
Q 42.28125 15.578125 42.28125 23.484375 
Q 42.28125 31 38.0625 35.34375 
Q 33.84375 39.703125 27 39.703125 
Q 22.75 39.703125 19.328125 37.765625 
Q 15.921875 35.84375 13.96875 32.765625 
L 5.71875 33.84375 
L 12.640625 70.609375 
L 48.25 70.609375 
L 48.25 62.203125 
L 19.671875 62.203125 
L 15.828125 42.96875 
Q 22.265625 47.46875 29.34375 47.46875 
Q 38.71875 47.46875 45.15625 40.96875 
Q 51.609375 34.46875 51.609375 24.265625 
Q 51.609375 14.546875 45.953125 7.46875 
Q 39.0625 -1.21875 27.15625 -1.21875 
Q 17.390625 -1.21875 11.203125 4.25 
Q 5.03125 9.71875 4.15625 18.75 
z
" id="ArialMT-53"/>
      </defs>
      <g style="fill:#262626;" transform="translate(47.474219 232.446797)scale(0.11 -0.11)">
       <use xlink:href="#ArialMT-89"/>
       <use x="66.699219" xlink:href="#ArialMT-49"/>
       <use x="122.314453" xlink:href="#ArialMT-53"/>
       <use x="177.929688" xlink:href="#ArialMT-51"/>
       <use x="233.544922" xlink:href="#ArialMT-69"/>
      </g>
     </g>
    </g>
    <g id="ytick_8">
     <g id="text_16">
      <!-- L181G -->
      <defs>
       <path d="M 7.328125 0 
L 7.328125 71.578125 
L 16.796875 71.578125 
L 16.796875 8.453125 
L 52.046875 8.453125 
L 52.046875 0 
z
" id="ArialMT-76"/>
       <path d="M 41.21875 28.078125 
L 41.21875 36.46875 
L 71.53125 36.53125 
L 71.53125 9.96875 
Q 64.546875 4.390625 57.125 1.578125 
Q 49.703125 -1.21875 41.890625 -1.21875 
Q 31.34375 -1.21875 22.71875 3.296875 
Q 14.109375 7.8125 9.71875 16.359375 
Q 5.328125 24.90625 5.328125 35.453125 
Q 5.328125 45.90625 9.6875 54.953125 
Q 14.0625 64.015625 22.265625 68.40625 
Q 30.46875 72.796875 41.15625 72.796875 
Q 48.921875 72.796875 55.1875 70.28125 
Q 61.46875 67.78125 65.03125 63.28125 
Q 68.609375 58.796875 70.453125 51.5625 
L 61.921875 49.21875 
Q 60.296875 54.6875 57.90625 57.8125 
Q 55.515625 60.9375 51.0625 62.8125 
Q 46.625 64.703125 41.21875 64.703125 
Q 34.71875 64.703125 29.984375 62.71875 
Q 25.25 60.75 22.34375 57.515625 
Q 19.4375 54.296875 17.828125 50.4375 
Q 15.09375 43.796875 15.09375 36.03125 
Q 15.09375 26.46875 18.390625 20.015625 
Q 21.6875 13.578125 27.984375 10.453125 
Q 34.28125 7.328125 41.359375 7.328125 
Q 47.515625 7.328125 53.375 9.6875 
Q 59.234375 12.0625 62.25 14.75 
L 62.25 28.078125 
z
" id="ArialMT-71"/>
      </defs>
      <g style="fill:#262626;" transform="translate(47.475938 259.626797)scale(0.11 -0.11)">
       <use xlink:href="#ArialMT-76"/>
       <use x="55.615234" xlink:href="#ArialMT-49"/>
       <use x="111.230469" xlink:href="#ArialMT-56"/>
       <use x="166.845703" xlink:href="#ArialMT-49"/>
       <use x="222.460938" xlink:href="#ArialMT-71"/>
      </g>
     </g>
    </g>
    <g id="ytick_9">
     <g id="text_17">
      <!-- L211E -->
      <g style="fill:#262626;" transform="translate(48.706563 286.806797)scale(0.11 -0.11)">
       <use xlink:href="#ArialMT-76"/>
       <use x="55.615234" xlink:href="#ArialMT-50"/>
       <use x="111.230469" xlink:href="#ArialMT-49"/>
       <use x="166.736328" xlink:href="#ArialMT-49"/>
       <use x="222.351562" xlink:href="#ArialMT-69"/>
      </g>
     </g>
    </g>
    <g id="ytick_10">
     <g id="text_18">
      <!-- E218F -->
      <g style="fill:#262626;" transform="translate(48.092969 313.986797)scale(0.11 -0.11)">
       <use xlink:href="#ArialMT-69"/>
       <use x="66.699219" xlink:href="#ArialMT-50"/>
       <use x="122.314453" xlink:href="#ArialMT-49"/>
       <use x="177.929688" xlink:href="#ArialMT-56"/>
       <use x="233.544922" xlink:href="#ArialMT-70"/>
      </g>
     </g>
    </g>
    <g id="ytick_11">
     <g id="text_19">
      <!-- F220G -->
      <g style="fill:#262626;" transform="translate(46.874375 341.166797)scale(0.11 -0.11)">
       <use xlink:href="#ArialMT-70"/>
       <use x="61.083984" xlink:href="#ArialMT-50"/>
       <use x="116.699219" xlink:href="#ArialMT-50"/>
       <use x="172.314453" xlink:href="#ArialMT-48"/>
       <use x="227.929688" xlink:href="#ArialMT-71"/>
      </g>
     </g>
    </g>
    <g id="ytick_12">
     <g id="text_20">
      <!-- L253E -->
      <g style="fill:#262626;" transform="translate(48.694531 368.346797)scale(0.11 -0.11)">
       <use xlink:href="#ArialMT-76"/>
       <use x="55.615234" xlink:href="#ArialMT-50"/>
       <use x="111.230469" xlink:href="#ArialMT-53"/>
       <use x="166.845703" xlink:href="#ArialMT-51"/>
       <use x="222.460938" xlink:href="#ArialMT-69"/>
      </g>
     </g>
    </g>
    <g id="text_21">
     <!-- Mutation Name -->
     <defs>
      <path d="M 7.421875 0 
L 7.421875 71.578125 
L 21.6875 71.578125 
L 38.625 20.90625 
Q 40.96875 13.8125 42.046875 10.296875 
Q 43.265625 14.203125 45.84375 21.78125 
L 62.984375 71.578125 
L 75.734375 71.578125 
L 75.734375 0 
L 66.609375 0 
L 66.609375 59.90625 
L 45.796875 0 
L 37.25 0 
L 16.546875 60.9375 
L 16.546875 0 
z
" id="ArialMT-77"/>
      <path d="M 40.578125 0 
L 40.578125 7.625 
Q 34.515625 -1.171875 24.125 -1.171875 
Q 19.53125 -1.171875 15.546875 0.578125 
Q 11.578125 2.34375 9.640625 5 
Q 7.71875 7.671875 6.9375 11.53125 
Q 6.390625 14.109375 6.390625 19.734375 
L 6.390625 51.859375 
L 15.1875 51.859375 
L 15.1875 23.09375 
Q 15.1875 16.21875 15.71875 13.8125 
Q 16.546875 10.359375 19.234375 8.375 
Q 21.921875 6.390625 25.875 6.390625 
Q 29.828125 6.390625 33.296875 8.421875 
Q 36.765625 10.453125 38.203125 13.9375 
Q 39.65625 17.4375 39.65625 24.078125 
L 39.65625 51.859375 
L 48.4375 51.859375 
L 48.4375 0 
z
" id="ArialMT-117"/>
      <path d="M 40.4375 6.390625 
Q 35.546875 2.25 31.03125 0.53125 
Q 26.515625 -1.171875 21.34375 -1.171875 
Q 12.796875 -1.171875 8.203125 3 
Q 3.609375 7.171875 3.609375 13.671875 
Q 3.609375 17.484375 5.34375 20.625 
Q 7.078125 23.78125 9.890625 25.6875 
Q 12.703125 27.59375 16.21875 28.5625 
Q 18.796875 29.25 24.03125 29.890625 
Q 34.671875 31.15625 39.703125 32.90625 
Q 39.75 34.71875 39.75 35.203125 
Q 39.75 40.578125 37.25 42.78125 
Q 33.890625 45.75 27.25 45.75 
Q 21.046875 45.75 18.09375 43.578125 
Q 15.140625 41.40625 13.71875 35.890625 
L 5.125 37.0625 
Q 6.296875 42.578125 8.984375 45.96875 
Q 11.671875 49.359375 16.75 51.1875 
Q 21.828125 53.03125 28.515625 53.03125 
Q 35.15625 53.03125 39.296875 51.46875 
Q 43.453125 49.90625 45.40625 47.53125 
Q 47.359375 45.171875 48.140625 41.546875 
Q 48.578125 39.3125 48.578125 33.453125 
L 48.578125 21.734375 
Q 48.578125 9.46875 49.140625 6.21875 
Q 49.703125 2.984375 51.375 0 
L 42.1875 0 
Q 40.828125 2.734375 40.4375 6.390625 
z
M 39.703125 26.03125 
Q 34.90625 24.078125 25.34375 22.703125 
Q 19.921875 21.921875 17.671875 20.9375 
Q 15.4375 19.96875 14.203125 18.09375 
Q 12.984375 16.21875 12.984375 13.921875 
Q 12.984375 10.40625 15.640625 8.0625 
Q 18.3125 5.71875 23.4375 5.71875 
Q 28.515625 5.71875 32.46875 7.9375 
Q 36.421875 10.15625 38.28125 14.015625 
Q 39.703125 17 39.703125 22.796875 
z
" id="ArialMT-97"/>
      <path id="ArialMT-32"/>
      <path d="M 7.625 0 
L 7.625 71.578125 
L 17.328125 71.578125 
L 54.9375 15.375 
L 54.9375 71.578125 
L 64.015625 71.578125 
L 64.015625 0 
L 54.296875 0 
L 16.703125 56.25 
L 16.703125 0 
z
" id="ArialMT-78"/>
      <path d="M 6.59375 0 
L 6.59375 51.859375 
L 14.453125 51.859375 
L 14.453125 44.578125 
Q 16.890625 48.390625 20.9375 50.703125 
Q 25 53.03125 30.171875 53.03125 
Q 35.9375 53.03125 39.625 50.640625 
Q 43.3125 48.25 44.828125 43.953125 
Q 50.984375 53.03125 60.84375 53.03125 
Q 68.5625 53.03125 72.703125 48.75 
Q 76.859375 44.484375 76.859375 35.59375 
L 76.859375 0 
L 68.109375 0 
L 68.109375 32.671875 
Q 68.109375 37.9375 67.25 40.25 
Q 66.40625 42.578125 64.15625 43.984375 
Q 61.921875 45.40625 58.890625 45.40625 
Q 53.421875 45.40625 49.796875 41.765625 
Q 46.1875 38.140625 46.1875 30.125 
L 46.1875 0 
L 37.40625 0 
L 37.40625 33.6875 
Q 37.40625 39.546875 35.25 42.46875 
Q 33.109375 45.40625 28.21875 45.40625 
Q 24.515625 45.40625 21.359375 43.453125 
Q 18.21875 41.5 16.796875 37.734375 
Q 15.375 33.984375 15.375 26.90625 
L 15.375 0 
z
" id="ArialMT-109"/>
     </defs>
     <g style="fill:#262626;" transform="translate(40.4825 255.601875)rotate(-90)scale(0.12 -0.12)">
      <use xlink:href="#ArialMT-77"/>
      <use x="83.300781" xlink:href="#ArialMT-117"/>
      <use x="138.916016" xlink:href="#ArialMT-116"/>
      <use x="166.699219" xlink:href="#ArialMT-97"/>
      <use x="222.314453" xlink:href="#ArialMT-116"/>
      <use x="250.097656" xlink:href="#ArialMT-105"/>
      <use x="272.314453" xlink:href="#ArialMT-111"/>
      <use x="327.929688" xlink:href="#ArialMT-110"/>
      <use x="383.544922" xlink:href="#ArialMT-32"/>
      <use x="411.328125" xlink:href="#ArialMT-78"/>
      <use x="483.544922" xlink:href="#ArialMT-97"/>
      <use x="539.160156" xlink:href="#ArialMT-109"/>
      <use x="622.460938" xlink:href="#ArialMT-101"/>
     </g>
    </g>
   </g>
   <g id="patch_3">
    <path clip-path="url(#p46ed19e432)" d="M 117.363636 57.276 
L 117.363636 73.584 
L 427.71519 73.584 
L 427.71519 57.276 
L 117.363636 57.276 
z
" style="fill:#7c95e0;stroke:#5a5a5a;stroke-linejoin:miter;stroke-width:1.5;"/>
   </g>
   <g id="patch_4">
    <path clip-path="url(#p46ed19e432)" d="M 117.363636 84.456 
L 117.363636 100.764 
L 117.363636 100.764 
L 117.363636 84.456 
L 117.363636 84.456 
z
" style="fill:#e29a83;stroke:#5a5a5a;stroke-linejoin:miter;stroke-width:1.5;"/>
   </g>
   <g id="patch_5">
    <path clip-path="url(#p46ed19e432)" d="M 137.494548 111.636 
L 137.494548 127.944 
L 137.494548 127.944 
L 137.494548 111.636 
L 137.494548 111.636 
z
" style="fill:#eab49e;stroke:#5a5a5a;stroke-linejoin:miter;stroke-width:1.5;"/>
   </g>
   <g id="patch_6">
    <path clip-path="url(#p46ed19e432)" d="M 595.472787 138.816 
L 595.472787 155.124 
L 612.248546 155.124 
L 612.248546 138.816 
L 595.472787 138.816 
z
" style="fill:#6377ca;stroke:#5a5a5a;stroke-linejoin:miter;stroke-width:1.5;"/>
   </g>
   <g id="patch_7">
    <path clip-path="url(#p46ed19e432)" d="M 117.363636 165.996 
L 117.363636 182.304 
L 117.363636 182.304 
L 117.363636 165.996 
L 117.363636 165.996 
z
" style="fill:#e29a83;stroke:#5a5a5a;stroke-linejoin:miter;stroke-width:1.5;"/>
   </g>
   <g id="patch_8">
    <path clip-path="url(#p46ed19e432)" d="M 117.363636 193.176 
L 117.363636 209.484 
L 117.363636 209.484 
L 117.363636 193.176 
L 117.363636 193.176 
z
" style="fill:#e29a83;stroke:#5a5a5a;stroke-linejoin:miter;stroke-width:1.5;"/>
   </g>
   <g id="patch_9">
    <path clip-path="url(#p46ed19e432)" d="M 476.364893 220.356 
L 476.364893 236.664 
L 479.720045 236.664 
L 479.720045 220.356 
L 476.364893 220.356 
z
" style="fill:#95afed;stroke:#5a5a5a;stroke-linejoin:miter;stroke-width:1.5;"/>
   </g>
   <g id="patch_10">
    <path clip-path="url(#p46ed19e432)" d="M 117.363636 247.536 
L 117.363636 263.844 
L 117.363636 263.844 
L 117.363636 247.536 
L 117.363636 247.536 
z
" style="fill:#e29a83;stroke:#5a5a5a;stroke-linejoin:miter;stroke-width:1.5;"/>
   </g>
   <g id="patch_11">
    <path clip-path="url(#p46ed19e432)" d="M 117.363636 274.716 
L 117.363636 291.024 
L 117.363636 291.024 
L 117.363636 274.716 
L 117.363636 274.716 
z
" style="fill:#e29a83;stroke:#5a5a5a;stroke-linejoin:miter;stroke-width:1.5;"/>
   </g>
   <g id="patch_12">
    <path clip-path="url(#p46ed19e432)" d="M 139.172124 301.896 
L 139.172124 318.204 
L 142.527276 318.204 
L 142.527276 301.896 
L 139.172124 301.896 
z
" style="fill:#eab49e;stroke:#5a5a5a;stroke-linejoin:miter;stroke-width:1.5;"/>
   </g>
   <g id="patch_13">
    <path clip-path="url(#p46ed19e432)" d="M 511.593988 329.076 
L 511.593988 345.384 
L 521.659444 345.384 
L 521.659444 329.076 
L 511.593988 329.076 
z
" style="fill:#7c95e0;stroke:#5a5a5a;stroke-linejoin:miter;stroke-width:1.5;"/>
   </g>
   <g id="patch_14">
    <path clip-path="url(#p46ed19e432)" d="M 117.363636 356.256 
L 117.363636 372.564 
L 124.07394 372.564 
L 124.07394 356.256 
L 117.363636 356.256 
z
" style="fill:#e29a83;stroke:#5a5a5a;stroke-linejoin:miter;stroke-width:1.5;"/>
   </g>
   <g id="line2d_8">
    <path clip-path="url(#p46ed19e432)" d="M 117.363636 65.43 
L 117.363636 65.43 
" style="fill:none;stroke:#5a5a5a;stroke-linecap:round;stroke-width:1.5;"/>
   </g>
   <g id="line2d_9">
    <path clip-path="url(#p46ed19e432)" d="M 427.71519 65.43 
L 620.636426 65.43 
" style="fill:none;stroke:#5a5a5a;stroke-linecap:round;stroke-width:1.5;"/>
   </g>
   <g id="line2d_10">
    <path clip-path="url(#p46ed19e432)" d="M 117.363636 61.353 
L 117.363636 69.507 
" style="fill:none;stroke:#5a5a5a;stroke-linecap:round;stroke-width:1.5;"/>
   </g>
   <g id="line2d_11">
    <path clip-path="url(#p46ed19e432)" d="M 620.636426 61.353 
L 620.636426 69.507 
" style="fill:none;stroke:#5a5a5a;stroke-linecap:round;stroke-width:1.5;"/>
   </g>
   <g id="line2d_12"/>
   <g id="line2d_13">
    <path clip-path="url(#p46ed19e432)" d="M 117.363636 92.61 
L 117.363636 92.61 
" style="fill:none;stroke:#5a5a5a;stroke-linecap:round;stroke-width:1.5;"/>
   </g>
   <g id="line2d_14">
    <path clip-path="url(#p46ed19e432)" d="M 117.363636 92.61 
L 117.363636 92.61 
" style="fill:none;stroke:#5a5a5a;stroke-linecap:round;stroke-width:1.5;"/>
   </g>
   <g id="line2d_15">
    <path clip-path="url(#p46ed19e432)" d="M 117.363636 88.533 
L 117.363636 96.687 
" style="fill:none;stroke:#5a5a5a;stroke-linecap:round;stroke-width:1.5;"/>
   </g>
   <g id="line2d_16">
    <path clip-path="url(#p46ed19e432)" d="M 117.363636 88.533 
L 117.363636 96.687 
" style="fill:none;stroke:#5a5a5a;stroke-linecap:round;stroke-width:1.5;"/>
   </g>
   <g id="line2d_17"/>
   <g id="line2d_18">
    <path clip-path="url(#p46ed19e432)" d="M 137.494548 119.79 
L 137.494548 119.79 
" style="fill:none;stroke:#5a5a5a;stroke-linecap:round;stroke-width:1.5;"/>
   </g>
   <g id="line2d_19">
    <path clip-path="url(#p46ed19e432)" d="M 137.494548 119.79 
L 137.494548 119.79 
" style="fill:none;stroke:#5a5a5a;stroke-linecap:round;stroke-width:1.5;"/>
   </g>
   <g id="line2d_20">
    <path clip-path="url(#p46ed19e432)" d="M 137.494548 115.713 
L 137.494548 123.867 
" style="fill:none;stroke:#5a5a5a;stroke-linecap:round;stroke-width:1.5;"/>
   </g>
   <g id="line2d_21">
    <path clip-path="url(#p46ed19e432)" d="M 137.494548 115.713 
L 137.494548 123.867 
" style="fill:none;stroke:#5a5a5a;stroke-linecap:round;stroke-width:1.5;"/>
   </g>
   <g id="line2d_22"/>
   <g id="line2d_23">
    <path clip-path="url(#p46ed19e432)" d="M 595.472787 146.97 
L 587.084907 146.97 
" style="fill:none;stroke:#5a5a5a;stroke-linecap:round;stroke-width:1.5;"/>
   </g>
   <g id="line2d_24">
    <path clip-path="url(#p46ed19e432)" d="M 612.248546 146.97 
L 620.636426 146.97 
" style="fill:none;stroke:#5a5a5a;stroke-linecap:round;stroke-width:1.5;"/>
   </g>
   <g id="line2d_25">
    <path clip-path="url(#p46ed19e432)" d="M 587.084907 142.893 
L 587.084907 151.047 
" style="fill:none;stroke:#5a5a5a;stroke-linecap:round;stroke-width:1.5;"/>
   </g>
   <g id="line2d_26">
    <path clip-path="url(#p46ed19e432)" d="M 620.636426 142.893 
L 620.636426 151.047 
" style="fill:none;stroke:#5a5a5a;stroke-linecap:round;stroke-width:1.5;"/>
   </g>
   <g id="line2d_27"/>
   <g id="line2d_28">
    <path clip-path="url(#p46ed19e432)" d="M 117.363636 174.15 
L 117.363636 174.15 
" style="fill:none;stroke:#5a5a5a;stroke-linecap:round;stroke-width:1.5;"/>
   </g>
   <g id="line2d_29">
    <path clip-path="url(#p46ed19e432)" d="M 117.363636 174.15 
L 117.363636 174.15 
" style="fill:none;stroke:#5a5a5a;stroke-linecap:round;stroke-width:1.5;"/>
   </g>
   <g id="line2d_30">
    <path clip-path="url(#p46ed19e432)" d="M 117.363636 170.073 
L 117.363636 178.227 
" style="fill:none;stroke:#5a5a5a;stroke-linecap:round;stroke-width:1.5;"/>
   </g>
   <g id="line2d_31">
    <path clip-path="url(#p46ed19e432)" d="M 117.363636 170.073 
L 117.363636 178.227 
" style="fill:none;stroke:#5a5a5a;stroke-linecap:round;stroke-width:1.5;"/>
   </g>
   <g id="line2d_32"/>
   <g id="line2d_33">
    <path clip-path="url(#p46ed19e432)" d="M 117.363636 201.33 
L 117.363636 201.33 
" style="fill:none;stroke:#5a5a5a;stroke-linecap:round;stroke-width:1.5;"/>
   </g>
   <g id="line2d_34">
    <path clip-path="url(#p46ed19e432)" d="M 117.363636 201.33 
L 117.363636 201.33 
" style="fill:none;stroke:#5a5a5a;stroke-linecap:round;stroke-width:1.5;"/>
   </g>
   <g id="line2d_35">
    <path clip-path="url(#p46ed19e432)" d="M 117.363636 197.253 
L 117.363636 205.407 
" style="fill:none;stroke:#5a5a5a;stroke-linecap:round;stroke-width:1.5;"/>
   </g>
   <g id="line2d_36">
    <path clip-path="url(#p46ed19e432)" d="M 117.363636 197.253 
L 117.363636 205.407 
" style="fill:none;stroke:#5a5a5a;stroke-linecap:round;stroke-width:1.5;"/>
   </g>
   <g id="line2d_37"/>
   <g id="line2d_38">
    <path clip-path="url(#p46ed19e432)" d="M 476.364893 228.51 
L 473.009741 228.51 
" style="fill:none;stroke:#5a5a5a;stroke-linecap:round;stroke-width:1.5;"/>
   </g>
   <g id="line2d_39">
    <path clip-path="url(#p46ed19e432)" d="M 479.720045 228.51 
L 479.720045 228.51 
" style="fill:none;stroke:#5a5a5a;stroke-linecap:round;stroke-width:1.5;"/>
   </g>
   <g id="line2d_40">
    <path clip-path="url(#p46ed19e432)" d="M 473.009741 224.433 
L 473.009741 232.587 
" style="fill:none;stroke:#5a5a5a;stroke-linecap:round;stroke-width:1.5;"/>
   </g>
   <g id="line2d_41">
    <path clip-path="url(#p46ed19e432)" d="M 479.720045 224.433 
L 479.720045 232.587 
" style="fill:none;stroke:#5a5a5a;stroke-linecap:round;stroke-width:1.5;"/>
   </g>
   <g id="line2d_42"/>
   <g id="line2d_43">
    <path clip-path="url(#p46ed19e432)" d="M 117.363636 255.69 
L 117.363636 255.69 
" style="fill:none;stroke:#5a5a5a;stroke-linecap:round;stroke-width:1.5;"/>
   </g>
   <g id="line2d_44">
    <path clip-path="url(#p46ed19e432)" d="M 117.363636 255.69 
L 117.363636 255.69 
" style="fill:none;stroke:#5a5a5a;stroke-linecap:round;stroke-width:1.5;"/>
   </g>
   <g id="line2d_45">
    <path clip-path="url(#p46ed19e432)" d="M 117.363636 251.613 
L 117.363636 259.767 
" style="fill:none;stroke:#5a5a5a;stroke-linecap:round;stroke-width:1.5;"/>
   </g>
   <g id="line2d_46">
    <path clip-path="url(#p46ed19e432)" d="M 117.363636 251.613 
L 117.363636 259.767 
" style="fill:none;stroke:#5a5a5a;stroke-linecap:round;stroke-width:1.5;"/>
   </g>
   <g id="line2d_47"/>
   <g id="line2d_48">
    <path clip-path="url(#p46ed19e432)" d="M 117.363636 282.87 
L 117.363636 282.87 
" style="fill:none;stroke:#5a5a5a;stroke-linecap:round;stroke-width:1.5;"/>
   </g>
   <g id="line2d_49">
    <path clip-path="url(#p46ed19e432)" d="M 117.363636 282.87 
L 117.363636 282.87 
" style="fill:none;stroke:#5a5a5a;stroke-linecap:round;stroke-width:1.5;"/>
   </g>
   <g id="line2d_50">
    <path clip-path="url(#p46ed19e432)" d="M 117.363636 278.793 
L 117.363636 286.947 
" style="fill:none;stroke:#5a5a5a;stroke-linecap:round;stroke-width:1.5;"/>
   </g>
   <g id="line2d_51">
    <path clip-path="url(#p46ed19e432)" d="M 117.363636 278.793 
L 117.363636 286.947 
" style="fill:none;stroke:#5a5a5a;stroke-linecap:round;stroke-width:1.5;"/>
   </g>
   <g id="line2d_52"/>
   <g id="line2d_53">
    <path clip-path="url(#p46ed19e432)" d="M 139.172124 310.05 
L 137.494548 310.05 
" style="fill:none;stroke:#5a5a5a;stroke-linecap:round;stroke-width:1.5;"/>
   </g>
   <g id="line2d_54">
    <path clip-path="url(#p46ed19e432)" d="M 142.527276 310.05 
L 144.204852 310.05 
" style="fill:none;stroke:#5a5a5a;stroke-linecap:round;stroke-width:1.5;"/>
   </g>
   <g id="line2d_55">
    <path clip-path="url(#p46ed19e432)" d="M 137.494548 305.973 
L 137.494548 314.127 
" style="fill:none;stroke:#5a5a5a;stroke-linecap:round;stroke-width:1.5;"/>
   </g>
   <g id="line2d_56">
    <path clip-path="url(#p46ed19e432)" d="M 144.204852 305.973 
L 144.204852 314.127 
" style="fill:none;stroke:#5a5a5a;stroke-linecap:round;stroke-width:1.5;"/>
   </g>
   <g id="line2d_57"/>
   <g id="line2d_58">
    <path clip-path="url(#p46ed19e432)" d="M 511.593988 337.23 
L 506.56126 337.23 
" style="fill:none;stroke:#5a5a5a;stroke-linecap:round;stroke-width:1.5;"/>
   </g>
   <g id="line2d_59">
    <path clip-path="url(#p46ed19e432)" d="M 521.659444 337.23 
L 526.692172 337.23 
" style="fill:none;stroke:#5a5a5a;stroke-linecap:round;stroke-width:1.5;"/>
   </g>
   <g id="line2d_60">
    <path clip-path="url(#p46ed19e432)" d="M 506.56126 333.153 
L 506.56126 341.307 
" style="fill:none;stroke:#5a5a5a;stroke-linecap:round;stroke-width:1.5;"/>
   </g>
   <g id="line2d_61">
    <path clip-path="url(#p46ed19e432)" d="M 526.692172 333.153 
L 526.692172 341.307 
" style="fill:none;stroke:#5a5a5a;stroke-linecap:round;stroke-width:1.5;"/>
   </g>
   <g id="line2d_62"/>
   <g id="line2d_63">
    <path clip-path="url(#p46ed19e432)" d="M 117.363636 364.41 
L 117.363636 364.41 
" style="fill:none;stroke:#5a5a5a;stroke-linecap:round;stroke-width:1.5;"/>
   </g>
   <g id="line2d_64">
    <path clip-path="url(#p46ed19e432)" d="M 124.07394 364.41 
L 130.784244 364.41 
" style="fill:none;stroke:#5a5a5a;stroke-linecap:round;stroke-width:1.5;"/>
   </g>
   <g id="line2d_65">
    <path clip-path="url(#p46ed19e432)" d="M 117.363636 360.333 
L 117.363636 368.487 
" style="fill:none;stroke:#5a5a5a;stroke-linecap:round;stroke-width:1.5;"/>
   </g>
   <g id="line2d_66">
    <path clip-path="url(#p46ed19e432)" d="M 130.784244 360.333 
L 130.784244 368.487 
" style="fill:none;stroke:#5a5a5a;stroke-linecap:round;stroke-width:1.5;"/>
   </g>
   <g id="line2d_67"/>
   <g id="line2d_68">
    <path clip-path="url(#p46ed19e432)" d="M 207.952739 57.276 
L 207.952739 73.584 
" style="fill:none;stroke:#5a5a5a;stroke-linecap:round;stroke-width:1.5;"/>
   </g>
   <g id="line2d_69">
    <path clip-path="url(#p46ed19e432)" d="M 117.363636 84.456 
L 117.363636 100.764 
" style="fill:none;stroke:#5a5a5a;stroke-linecap:round;stroke-width:1.5;"/>
   </g>
   <g id="line2d_70">
    <path clip-path="url(#p46ed19e432)" d="M 137.494548 111.636 
L 137.494548 127.944 
" style="fill:none;stroke:#5a5a5a;stroke-linecap:round;stroke-width:1.5;"/>
   </g>
   <g id="line2d_71">
    <path clip-path="url(#p46ed19e432)" d="M 603.860666 138.816 
L 603.860666 155.124 
" style="fill:none;stroke:#5a5a5a;stroke-linecap:round;stroke-width:1.5;"/>
   </g>
   <g id="line2d_72">
    <path clip-path="url(#p46ed19e432)" d="M 117.363636 165.996 
L 117.363636 182.304 
" style="fill:none;stroke:#5a5a5a;stroke-linecap:round;stroke-width:1.5;"/>
   </g>
   <g id="line2d_73">
    <path clip-path="url(#p46ed19e432)" d="M 117.363636 193.176 
L 117.363636 209.484 
" style="fill:none;stroke:#5a5a5a;stroke-linecap:round;stroke-width:1.5;"/>
   </g>
   <g id="line2d_74">
    <path clip-path="url(#p46ed19e432)" d="M 479.720045 220.356 
L 479.720045 236.664 
" style="fill:none;stroke:#5a5a5a;stroke-linecap:round;stroke-width:1.5;"/>
   </g>
   <g id="line2d_75">
    <path clip-path="url(#p46ed19e432)" d="M 117.363636 247.536 
L 117.363636 263.844 
" style="fill:none;stroke:#5a5a5a;stroke-linecap:round;stroke-width:1.5;"/>
   </g>
   <g id="line2d_76">
    <path clip-path="url(#p46ed19e432)" d="M 117.363636 274.716 
L 117.363636 291.024 
" style="fill:none;stroke:#5a5a5a;stroke-linecap:round;stroke-width:1.5;"/>
   </g>
   <g id="line2d_77">
    <path clip-path="url(#p46ed19e432)" d="M 140.8497 301.896 
L 140.8497 318.204 
" style="fill:none;stroke:#5a5a5a;stroke-linecap:round;stroke-width:1.5;"/>
   </g>
   <g id="line2d_78">
    <path clip-path="url(#p46ed19e432)" d="M 516.626716 329.076 
L 516.626716 345.384 
" style="fill:none;stroke:#5a5a5a;stroke-linecap:round;stroke-width:1.5;"/>
   </g>
   <g id="line2d_79">
    <path clip-path="url(#p46ed19e432)" d="M 117.363636 356.256 
L 117.363636 372.564 
" style="fill:none;stroke:#5a5a5a;stroke-linecap:round;stroke-width:1.5;"/>
   </g>
   <g id="patch_15">
    <path d="M 117.363636 378 
L 572.748084 378 
" style="fill:none;stroke:#cccccc;stroke-linecap:square;stroke-linejoin:miter;stroke-width:1.25;"/>
   </g>
   <g id="PathCollection_1">
    <defs>
     <path d="M 0 2 
C 0.530406 2 1.03916 1.789267 1.414214 1.414214 
C 1.789267 1.03916 2 0.530406 2 0 
C 2 -0.530406 1.789267 -1.03916 1.414214 -1.414214 
C 1.03916 -1.789267 0.530406 -2 0 -2 
C -0.530406 -2 -1.03916 -1.789267 -1.414214 -1.414214 
C -1.789267 -1.03916 -2 -0.530406 -2 0 
C -2 0.530406 -1.789267 1.03916 -1.414214 1.414214 
C -1.03916 1.789267 -0.530406 2 0 2 
z
" id="C0_0_a822ff4a49"/>
    </defs>
    <g clip-path="url(#p46ed19e432)">
     <use style="fill:#4c4c4c;" x="546.823083" xlink:href="#C0_0_a822ff4a49" y="62.748278"/>
    </g>
    <g clip-path="url(#p46ed19e432)">
     <use style="fill:#4c4c4c;" x="446.168526" xlink:href="#C0_0_a822ff4a49" y="65.193324"/>
    </g>
    <g clip-path="url(#p46ed19e432)">
     <use style="fill:#4c4c4c;" x="405.906703" xlink:href="#C0_0_a822ff4a49" y="63.469824"/>
    </g>
    <g clip-path="url(#p46ed19e432)">
     <use style="fill:#4c4c4c;" x="117.363636" xlink:href="#C0_0_a822ff4a49" y="63.698723"/>
    </g>
    <g clip-path="url(#p46ed19e432)">
     <use style="fill:#4c4c4c;" x="117.363636" xlink:href="#C0_0_a822ff4a49" y="66.461728"/>
    </g>
    <g clip-path="url(#p46ed19e432)">
     <use style="fill:#4c4c4c;" x="466.299437" xlink:href="#C0_0_a822ff4a49" y="62.898375"/>
    </g>
    <g clip-path="url(#p46ed19e432)">
     <use style="fill:#4c4c4c;" x="432.747918" xlink:href="#C0_0_a822ff4a49" y="64.10802"/>
    </g>
    <g clip-path="url(#p46ed19e432)">
     <use style="fill:#4c4c4c;" x="405.906703" xlink:href="#C0_0_a822ff4a49" y="64.61974"/>
    </g>
    <g clip-path="url(#p46ed19e432)">
     <use style="fill:#4c4c4c;" x="311.962448" xlink:href="#C0_0_a822ff4a49" y="64.193964"/>
    </g>
    <g clip-path="url(#p46ed19e432)">
     <use style="fill:#4c4c4c;" x="479.720045" xlink:href="#C0_0_a822ff4a49" y="64.065825"/>
    </g>
    <g clip-path="url(#p46ed19e432)">
     <use style="fill:#4c4c4c;" x="479.720045" xlink:href="#C0_0_a822ff4a49" y="65.691106"/>
    </g>
    <g clip-path="url(#p46ed19e432)">
     <use style="fill:#4c4c4c;" x="473.009741" xlink:href="#C0_0_a822ff4a49" y="62.986415"/>
    </g>
    <g clip-path="url(#p46ed19e432)">
     <use style="fill:#4c4c4c;" x="144.204852" xlink:href="#C0_0_a822ff4a49" y="64.795689"/>
    </g>
    <g clip-path="url(#p46ed19e432)">
     <use style="fill:#4c4c4c;" x="137.494548" xlink:href="#C0_0_a822ff4a49" y="62.735281"/>
    </g>
    <g clip-path="url(#p46ed19e432)">
     <use style="fill:#4c4c4c;" x="197.887283" xlink:href="#C0_0_a822ff4a49" y="67.59439"/>
    </g>
    <g clip-path="url(#p46ed19e432)">
     <use style="fill:#4c4c4c;" x="426.037614" xlink:href="#C0_0_a822ff4a49" y="64.480489"/>
    </g>
    <g clip-path="url(#p46ed19e432)">
     <use style="fill:#4c4c4c;" x="432.747918" xlink:href="#C0_0_a822ff4a49" y="66.010987"/>
    </g>
    <g clip-path="url(#p46ed19e432)">
     <use style="fill:#4c4c4c;" x="426.037614" xlink:href="#C0_0_a822ff4a49" y="65.375455"/>
    </g>
    <g clip-path="url(#p46ed19e432)">
     <use style="fill:#4c4c4c;" x="117.363636" xlink:href="#C0_0_a822ff4a49" y="64.080072"/>
    </g>
    <g clip-path="url(#p46ed19e432)">
     <use style="fill:#4c4c4c;" x="117.363636" xlink:href="#C0_0_a822ff4a49" y="66.895513"/>
    </g>
    <g clip-path="url(#p46ed19e432)">
     <use style="fill:#4c4c4c;" x="137.494548" xlink:href="#C0_0_a822ff4a49" y="64.37685"/>
    </g>
    <g clip-path="url(#p46ed19e432)">
     <use style="fill:#4c4c4c;" x="137.494548" xlink:href="#C0_0_a822ff4a49" y="66.333155"/>
    </g>
    <g clip-path="url(#p46ed19e432)">
     <use style="fill:#4c4c4c;" x="285.121233" xlink:href="#C0_0_a822ff4a49" y="65.283271"/>
    </g>
    <g clip-path="url(#p46ed19e432)">
     <use style="fill:#4c4c4c;" x="271.700625" xlink:href="#C0_0_a822ff4a49" y="67.958968"/>
    </g>
    <g clip-path="url(#p46ed19e432)">
     <use style="fill:#4c4c4c;" x="285.121233" xlink:href="#C0_0_a822ff4a49" y="68.093792"/>
    </g>
    <g clip-path="url(#p46ed19e432)">
     <use style="fill:#4c4c4c;" x="117.363636" xlink:href="#C0_0_a822ff4a49" y="65.101965"/>
    </g>
    <g clip-path="url(#p46ed19e432)">
     <use style="fill:#4c4c4c;" x="171.046067" xlink:href="#C0_0_a822ff4a49" y="64.304953"/>
    </g>
    <g clip-path="url(#p46ed19e432)">
     <use style="fill:#4c4c4c;" x="171.046067" xlink:href="#C0_0_a822ff4a49" y="65.323493"/>
    </g>
    <g clip-path="url(#p46ed19e432)">
     <use style="fill:#4c4c4c;" x="117.363636" xlink:href="#C0_0_a822ff4a49" y="65.493583"/>
    </g>
    <g clip-path="url(#p46ed19e432)">
     <use style="fill:#4c4c4c;" x="117.363636" xlink:href="#C0_0_a822ff4a49" y="64.737006"/>
    </g>
    <g clip-path="url(#p46ed19e432)">
     <use style="fill:#4c4c4c;" x="117.363636" xlink:href="#C0_0_a822ff4a49" y="64.128692"/>
    </g>
    <g clip-path="url(#p46ed19e432)">
     <use style="fill:#4c4c4c;" x="117.363636" xlink:href="#C0_0_a822ff4a49" y="64.791946"/>
    </g>
    <g clip-path="url(#p46ed19e432)">
     <use style="fill:#4c4c4c;" x="117.363636" xlink:href="#C0_0_a822ff4a49" y="67.772273"/>
    </g>
    <g clip-path="url(#p46ed19e432)">
     <use style="fill:#4c4c4c;" x="117.363636" xlink:href="#C0_0_a822ff4a49" y="65.775884"/>
    </g>
    <g clip-path="url(#p46ed19e432)">
     <use style="fill:#4c4c4c;" x="399.196399" xlink:href="#C0_0_a822ff4a49" y="65.101367"/>
    </g>
    <g clip-path="url(#p46ed19e432)">
     <use style="fill:#4c4c4c;" x="399.196399" xlink:href="#C0_0_a822ff4a49" y="66.883603"/>
    </g>
    <g clip-path="url(#p46ed19e432)">
     <use style="fill:#4c4c4c;" x="117.363636" xlink:href="#C0_0_a822ff4a49" y="64.777135"/>
    </g>
    <g clip-path="url(#p46ed19e432)">
     <use style="fill:#4c4c4c;" x="117.363636" xlink:href="#C0_0_a822ff4a49" y="63.205782"/>
    </g>
    <g clip-path="url(#p46ed19e432)">
     <use style="fill:#4c4c4c;" x="117.363636" xlink:href="#C0_0_a822ff4a49" y="67.385126"/>
    </g>
    <g clip-path="url(#p46ed19e432)">
     <use style="fill:#4c4c4c;" x="218.018194" xlink:href="#C0_0_a822ff4a49" y="64.01456"/>
    </g>
    <g clip-path="url(#p46ed19e432)">
     <use style="fill:#4c4c4c;" x="130.784244" xlink:href="#C0_0_a822ff4a49" y="64.096339"/>
    </g>
    <g clip-path="url(#p46ed19e432)">
     <use style="fill:#4c4c4c;" x="117.363636" xlink:href="#C0_0_a822ff4a49" y="63.636543"/>
    </g>
    <g clip-path="url(#p46ed19e432)">
     <use style="fill:#4c4c4c;" x="117.363636" xlink:href="#C0_0_a822ff4a49" y="65.534338"/>
    </g>
    <g clip-path="url(#p46ed19e432)">
     <use style="fill:#4c4c4c;" x="258.280017" xlink:href="#C0_0_a822ff4a49" y="64.036482"/>
    </g>
    <g clip-path="url(#p46ed19e432)">
     <use style="fill:#4c4c4c;" x="526.692172" xlink:href="#C0_0_a822ff4a49" y="63.173042"/>
    </g>
    <g clip-path="url(#p46ed19e432)">
     <use style="fill:#4c4c4c;" x="506.56126" xlink:href="#C0_0_a822ff4a49" y="66.638657"/>
    </g>
    <g clip-path="url(#p46ed19e432)">
     <use style="fill:#4c4c4c;" x="620.636426" xlink:href="#C0_0_a822ff4a49" y="64.594441"/>
    </g>
    <g clip-path="url(#p46ed19e432)">
     <use style="fill:#4c4c4c;" x="587.084907" xlink:href="#C0_0_a822ff4a49" y="65.653144"/>
    </g>
   </g>
   <g id="PathCollection_2">
    <defs>
     <path d="M 0 2 
C 0.530406 2 1.03916 1.789267 1.414214 1.414214 
C 1.789267 1.03916 2 0.530406 2 0 
C 2 -0.530406 1.789267 -1.03916 1.414214 -1.414214 
C 1.03916 -1.789267 0.530406 -2 0 -2 
C -0.530406 -2 -1.03916 -1.789267 -1.414214 -1.414214 
C -1.789267 -1.03916 -2 -0.530406 -2 0 
C -2 0.530406 -1.789267 1.03916 -1.414214 1.414214 
C -1.03916 1.789267 -0.530406 2 0 2 
z
" id="C1_0_bae1a3611f"/>
    </defs>
    <g clip-path="url(#p46ed19e432)">
     <use style="fill:#4c4c4c;" x="117.363636" xlink:href="#C1_0_bae1a3611f" y="94.412107"/>
    </g>
    <g clip-path="url(#p46ed19e432)">
     <use style="fill:#4c4c4c;" x="117.363636" xlink:href="#C1_0_bae1a3611f" y="89.952705"/>
    </g>
    <g clip-path="url(#p46ed19e432)">
     <use style="fill:#4c4c4c;" x="117.363636" xlink:href="#C1_0_bae1a3611f" y="94.192582"/>
    </g>
   </g>
   <g id="PathCollection_3">
    <defs>
     <path d="M 0 2 
C 0.530406 2 1.03916 1.789267 1.414214 1.414214 
C 1.789267 1.03916 2 0.530406 2 0 
C 2 -0.530406 1.789267 -1.03916 1.414214 -1.414214 
C 1.03916 -1.789267 0.530406 -2 0 -2 
C -0.530406 -2 -1.03916 -1.789267 -1.414214 -1.414214 
C -1.789267 -1.03916 -2 -0.530406 -2 0 
C -2 0.530406 -1.789267 1.03916 -1.414214 1.414214 
C -1.03916 1.789267 -0.530406 2 0 2 
z
" id="C2_0_68960f19f4"/>
    </defs>
    <g clip-path="url(#p46ed19e432)">
     <use style="fill:#4c4c4c;" x="137.494548" xlink:href="#C2_0_68960f19f4" y="121.21707"/>
    </g>
    <g clip-path="url(#p46ed19e432)">
     <use style="fill:#4c4c4c;" x="137.494548" xlink:href="#C2_0_68960f19f4" y="117.377463"/>
    </g>
   </g>
   <g id="PathCollection_4">
    <defs>
     <path d="M 0 2 
C 0.530406 2 1.03916 1.789267 1.414214 1.414214 
C 1.789267 1.03916 2 0.530406 2 0 
C 2 -0.530406 1.789267 -1.03916 1.414214 -1.414214 
C 1.03916 -1.789267 0.530406 -2 0 -2 
C -0.530406 -2 -1.03916 -1.789267 -1.414214 -1.414214 
C -1.789267 -1.03916 -2 -0.530406 -2 0 
C -2 0.530406 -1.789267 1.03916 -1.414214 1.414214 
C -1.03916 1.789267 -0.530406 2 0 2 
z
" id="C3_0_f7d7e40191"/>
    </defs>
    <g clip-path="url(#p46ed19e432)">
     <use style="fill:#4c4c4c;" x="620.636426" xlink:href="#C3_0_f7d7e40191" y="149.310132"/>
    </g>
    <g clip-path="url(#p46ed19e432)">
     <use style="fill:#4c4c4c;" x="587.084907" xlink:href="#C3_0_f7d7e40191" y="147.751491"/>
    </g>
   </g>
   <g id="PathCollection_5">
    <defs>
     <path d="M 0 2 
C 0.530406 2 1.03916 1.789267 1.414214 1.414214 
C 1.789267 1.03916 2 0.530406 2 0 
C 2 -0.530406 1.789267 -1.03916 1.414214 -1.414214 
C 1.03916 -1.789267 0.530406 -2 0 -2 
C -0.530406 -2 -1.03916 -1.789267 -1.414214 -1.414214 
C -1.789267 -1.03916 -2 -0.530406 -2 0 
C -2 0.530406 -1.789267 1.03916 -1.414214 1.414214 
C -1.03916 1.789267 -0.530406 2 0 2 
z
" id="C4_0_3619f4efd6"/>
    </defs>
    <g clip-path="url(#p46ed19e432)">
     <use style="fill:#4c4c4c;" x="117.363636" xlink:href="#C4_0_3619f4efd6" y="176.819697"/>
    </g>
    <g clip-path="url(#p46ed19e432)">
     <use style="fill:#4c4c4c;" x="117.363636" xlink:href="#C4_0_3619f4efd6" y="173.50277"/>
    </g>
   </g>
   <g id="PathCollection_6">
    <defs>
     <path d="M 0 2 
C 0.530406 2 1.03916 1.789267 1.414214 1.414214 
C 1.789267 1.03916 2 0.530406 2 0 
C 2 -0.530406 1.789267 -1.03916 1.414214 -1.414214 
C 1.03916 -1.789267 0.530406 -2 0 -2 
C -0.530406 -2 -1.03916 -1.789267 -1.414214 -1.414214 
C -1.789267 -1.03916 -2 -0.530406 -2 0 
C -2 0.530406 -1.789267 1.03916 -1.414214 1.414214 
C -1.03916 1.789267 -0.530406 2 0 2 
z
" id="C5_0_fca46f3526"/>
    </defs>
    <g clip-path="url(#p46ed19e432)">
     <use style="fill:#4c4c4c;" x="117.363636" xlink:href="#C5_0_fca46f3526" y="201.116719"/>
    </g>
    <g clip-path="url(#p46ed19e432)">
     <use style="fill:#4c4c4c;" x="117.363636" xlink:href="#C5_0_fca46f3526" y="198.660098"/>
    </g>
   </g>
   <g id="PathCollection_7">
    <defs>
     <path d="M 0 2 
C 0.530406 2 1.03916 1.789267 1.414214 1.414214 
C 1.789267 1.03916 2 0.530406 2 0 
C 2 -0.530406 1.789267 -1.03916 1.414214 -1.414214 
C 1.03916 -1.789267 0.530406 -2 0 -2 
C -0.530406 -2 -1.03916 -1.789267 -1.414214 -1.414214 
C -1.789267 -1.03916 -2 -0.530406 -2 0 
C -2 0.530406 -1.789267 1.03916 -1.414214 1.414214 
C -1.03916 1.789267 -0.530406 2 0 2 
z
" id="C6_0_0caa0d2969"/>
    </defs>
    <g clip-path="url(#p46ed19e432)">
     <use style="fill:#4c4c4c;" x="479.720045" xlink:href="#C6_0_0caa0d2969" y="229.78124"/>
    </g>
    <g clip-path="url(#p46ed19e432)">
     <use style="fill:#4c4c4c;" x="479.720045" xlink:href="#C6_0_0caa0d2969" y="230.496013"/>
    </g>
    <g clip-path="url(#p46ed19e432)">
     <use style="fill:#4c4c4c;" x="473.009741" xlink:href="#C6_0_0caa0d2969" y="226.093637"/>
    </g>
   </g>
   <g id="PathCollection_8">
    <defs>
     <path d="M 0 2 
C 0.530406 2 1.03916 1.789267 1.414214 1.414214 
C 1.789267 1.03916 2 0.530406 2 0 
C 2 -0.530406 1.789267 -1.03916 1.414214 -1.414214 
C 1.03916 -1.789267 0.530406 -2 0 -2 
C -0.530406 -2 -1.03916 -1.789267 -1.414214 -1.414214 
C -1.789267 -1.03916 -2 -0.530406 -2 0 
C -2 0.530406 -1.789267 1.03916 -1.414214 1.414214 
C -1.03916 1.789267 -0.530406 2 0 2 
z
" id="C7_0_f443b353d7"/>
    </defs>
    <g clip-path="url(#p46ed19e432)">
     <use style="fill:#4c4c4c;" x="117.363636" xlink:href="#C7_0_f443b353d7" y="254.039943"/>
    </g>
    <g clip-path="url(#p46ed19e432)">
     <use style="fill:#4c4c4c;" x="117.363636" xlink:href="#C7_0_f443b353d7" y="253.824317"/>
    </g>
   </g>
   <g id="PathCollection_9">
    <defs>
     <path d="M 0 2 
C 0.530406 2 1.03916 1.789267 1.414214 1.414214 
C 1.789267 1.03916 2 0.530406 2 0 
C 2 -0.530406 1.789267 -1.03916 1.414214 -1.414214 
C 1.03916 -1.789267 0.530406 -2 0 -2 
C -0.530406 -2 -1.03916 -1.789267 -1.414214 -1.414214 
C -1.789267 -1.03916 -2 -0.530406 -2 0 
C -2 0.530406 -1.789267 1.03916 -1.414214 1.414214 
C -1.03916 1.789267 -0.530406 2 0 2 
z
" id="C8_0_e2cdc3634a"/>
    </defs>
    <g clip-path="url(#p46ed19e432)">
     <use style="fill:#4c4c4c;" x="117.363636" xlink:href="#C8_0_e2cdc3634a" y="283.751921"/>
    </g>
    <g clip-path="url(#p46ed19e432)">
     <use style="fill:#4c4c4c;" x="117.363636" xlink:href="#C8_0_e2cdc3634a" y="285.572975"/>
    </g>
    <g clip-path="url(#p46ed19e432)">
     <use style="fill:#4c4c4c;" x="117.363636" xlink:href="#C8_0_e2cdc3634a" y="284.370802"/>
    </g>
   </g>
   <g id="PathCollection_10">
    <defs>
     <path d="M 0 2 
C 0.530406 2 1.03916 1.789267 1.414214 1.414214 
C 1.789267 1.03916 2 0.530406 2 0 
C 2 -0.530406 1.789267 -1.03916 1.414214 -1.414214 
C 1.03916 -1.789267 0.530406 -2 0 -2 
C -0.530406 -2 -1.03916 -1.789267 -1.414214 -1.414214 
C -1.789267 -1.03916 -2 -0.530406 -2 0 
C -2 0.530406 -1.789267 1.03916 -1.414214 1.414214 
C -1.03916 1.789267 -0.530406 2 0 2 
z
" id="C9_0_2e721e3ea1"/>
    </defs>
    <g clip-path="url(#p46ed19e432)">
     <use style="fill:#4c4c4c;" x="144.204852" xlink:href="#C9_0_2e721e3ea1" y="308.692251"/>
    </g>
    <g clip-path="url(#p46ed19e432)">
     <use style="fill:#4c4c4c;" x="137.494548" xlink:href="#C9_0_2e721e3ea1" y="307.575711"/>
    </g>
   </g>
   <g id="PathCollection_11">
    <defs>
     <path d="M 0 2 
C 0.530406 2 1.03916 1.789267 1.414214 1.414214 
C 1.789267 1.03916 2 0.530406 2 0 
C 2 -0.530406 1.789267 -1.03916 1.414214 -1.414214 
C 1.03916 -1.789267 0.530406 -2 0 -2 
C -0.530406 -2 -1.03916 -1.789267 -1.414214 -1.414214 
C -1.789267 -1.03916 -2 -0.530406 -2 0 
C -2 0.530406 -1.789267 1.03916 -1.414214 1.414214 
C -1.03916 1.789267 -0.530406 2 0 2 
z
" id="Ca_0_395d568f02"/>
    </defs>
    <g clip-path="url(#p46ed19e432)">
     <use style="fill:#4c4c4c;" x="526.692172" xlink:href="#Ca_0_395d568f02" y="338.096959"/>
    </g>
    <g clip-path="url(#p46ed19e432)">
     <use style="fill:#4c4c4c;" x="506.56126" xlink:href="#Ca_0_395d568f02" y="335.022218"/>
    </g>
   </g>
   <g id="PathCollection_12">
    <defs>
     <path d="M 0 2 
C 0.530406 2 1.03916 1.789267 1.414214 1.414214 
C 1.789267 1.03916 2 0.530406 2 0 
C 2 -0.530406 1.789267 -1.03916 1.414214 -1.414214 
C 1.03916 -1.789267 0.530406 -2 0 -2 
C -0.530406 -2 -1.03916 -1.789267 -1.414214 -1.414214 
C -1.789267 -1.03916 -2 -0.530406 -2 0 
C -2 0.530406 -1.789267 1.03916 -1.414214 1.414214 
C -1.03916 1.789267 -0.530406 2 0 2 
z
" id="Cb_0_3631084d1e"/>
    </defs>
    <g clip-path="url(#p46ed19e432)">
     <use style="fill:#4c4c4c;" x="130.784244" xlink:href="#Cb_0_3631084d1e" y="366.510858"/>
    </g>
    <g clip-path="url(#p46ed19e432)">
     <use style="fill:#4c4c4c;" x="117.363636" xlink:href="#Cb_0_3631084d1e" y="365.687409"/>
    </g>
    <g clip-path="url(#p46ed19e432)">
     <use style="fill:#4c4c4c;" x="117.363636" xlink:href="#Cb_0_3631084d1e" y="366.422626"/>
    </g>
   </g>
  </g>
 </g>
 <defs>
  <clipPath id="p46ed19e432">
   <rect height="326.16" width="558" x="90" y="51.84"/>
  </clipPath>
 </defs>
</svg>
